<svg id="Group_659" data-name="Group 659" xmlns="http://www.w3.org/2000/svg" xmlns:xlink="http://www.w3.org/1999/xlink" width="24.695" height="35.453" viewBox="0 0 24.695 35.453">
  <defs>
    <clipPath id="clip-path">
      <rect id="Rectangle_130" data-name="Rectangle 130" width="24.695" height="35.453" fill="none"/>
    </clipPath>
    <clipPath id="clip-path-3">
      <rect id="Rectangle_113" data-name="Rectangle 113" width="2.085" height="4.3" fill="none"/>
    </clipPath>
    <clipPath id="clip-path-4">
      <path id="Path_444" data-name="Path 444" d="M7.046,16.35A7.363,7.363,0,0,0,3.872,18.4,11.869,11.869,0,0,0,1.23,24.282a14.573,14.573,0,0,0,4.8,13.54c2.546,2.272,2.427,3.557,4.64,3.57h.066c.256,0,.543-.02.868-.054,3.214-.347,6.433-4.462,8.113-9.449,1.233-3.66,1.189-6.646-.056-8.866a7.023,7.023,0,0,0-1.823-2.114,32.315,32.315,0,0,0-4.953-3.881,7.939,7.939,0,0,0-1.86-.729,8.285,8.285,0,0,0-1.976-.25,6.682,6.682,0,0,0-2.006.3" transform="translate(-1.001 -16.049)" fill="none"/>
    </clipPath>
    <radialGradient id="radial-gradient" cx="0.682" cy="0.801" r="0.622" gradientTransform="matrix(0, 1, 0.856, 0, -0.734, 0.88)" gradientUnits="objectBoundingBox">
      <stop offset="0" stop-color="#fec5ba"/>
      <stop offset="1" stop-color="#bc331a"/>
    </radialGradient>
    <clipPath id="clip-path-6">
      <rect id="Rectangle_116" data-name="Rectangle 116" width="6.604" height="8.241" fill="none"/>
    </clipPath>
    <clipPath id="clip-path-7">
      <rect id="Rectangle_117" data-name="Rectangle 117" width="7.053" height="6.649" fill="none"/>
    </clipPath>
    <clipPath id="clip-path-8">
      <rect id="Rectangle_118" data-name="Rectangle 118" width="12.847" height="19.208" fill="none"/>
    </clipPath>
    <clipPath id="clip-path-9">
      <rect id="Rectangle_119" data-name="Rectangle 119" width="6.656" height="6.763" fill="none"/>
    </clipPath>
    <clipPath id="clip-path-10">
      <path id="Path_452" data-name="Path 452" d="M18.62,0a.731.731,0,0,0-.6.244c-.406,1.344-1,2.9-2.352,3.4s-1.482-.3-1.671-1.6A3.072,3.072,0,0,0,12.854.077,2.067,2.067,0,0,0,10.727.79c1.489,2.007.837,3.718.4,4-.391.259-2.647.152-4.566,4.3q-.312.673-.606,1.5c-.483,1.2,4.139.523,5.62-.017,1.147-.417,4.052,1.3,5.753,2.776a6.474,6.474,0,0,1,1.107,1.167c.967,1.462,1.591,1.715,1.591,1.715,2-.966.67-3.928,1.543-4.506s2.621-.271,4.095-.968a1.355,1.355,0,0,0,.026-.885,2.482,2.482,0,0,0-1.2-1.608,12.724,12.724,0,0,1-2.359.91,12.58,12.58,0,0,0-1.063-2.528,5.4,5.4,0,0,0-1.292-1.6c-.991-.965-.59-1.869.445-3.847C20.384.62,19.382.006,18.642,0Z" transform="translate(-5.924 -0.001)" fill="none"/>
    </clipPath>
    <radialGradient id="radial-gradient-2" cx="0.671" cy="0.556" r="0.399" gradientTransform="matrix(0, 1, 1.144, 0, -2.091, 1.848)" gradientUnits="objectBoundingBox">
      <stop offset="0" stop-color="#ff5f62"/>
      <stop offset="1" stop-color="#c61b1e"/>
    </radialGradient>
    <clipPath id="clip-path-12">
      <rect id="Rectangle_122" data-name="Rectangle 122" width="7.722" height="6.295" fill="none"/>
    </clipPath>
    <clipPath id="clip-path-13">
      <rect id="Rectangle_123" data-name="Rectangle 123" width="2.506" height="3.434" fill="none"/>
    </clipPath>
    <clipPath id="clip-path-14">
      <rect id="Rectangle_124" data-name="Rectangle 124" width="5.427" height="6.091" fill="none"/>
    </clipPath>
    <clipPath id="clip-path-15">
      <rect id="Rectangle_125" data-name="Rectangle 125" width="5.421" height="4.752" fill="none"/>
    </clipPath>
    <clipPath id="clip-path-16">
      <rect id="Rectangle_126" data-name="Rectangle 126" width="4.479" height="4.224" fill="none"/>
    </clipPath>
    <clipPath id="clip-path-17">
      <rect id="Rectangle_127" data-name="Rectangle 127" width="12.766" height="4.243" fill="none"/>
    </clipPath>
    <clipPath id="clip-path-18">
      <rect id="Rectangle_128" data-name="Rectangle 128" width="3.917" height="1.344" fill="none"/>
    </clipPath>
  </defs>
  <g id="Group_240" data-name="Group 240" clip-path="url(#clip-path)">
    <g id="Group_198" data-name="Group 198" transform="translate(0 0)">
      <g id="Group_197" data-name="Group 197" clip-path="url(#clip-path)">
        <path id="Path_439" data-name="Path 439" d="M8.988,9.155C6.192,10.511,5.3,11.459,3.4,10.6A1.67,1.67,0,0,0,4.22,9.391a4.479,4.479,0,0,1,.96-2.761C6.871,4.17,7.006,2.785,6.357,1.361A1.737,1.737,0,0,1,8.6.789c.583,1.028.638,2.945.922,3.374a4.25,4.25,0,0,1,.645-.139,5.307,5.307,0,0,1,1.583-.009s.029,3.781-2.764,5.14" transform="translate(-1.259 -0.212)" fill="#135eab"/>
        <path id="Path_440" data-name="Path 440" d="M10.227,1.08c.049.157-.287.4-.748.542s-.876.129-.924-.029.287-.4.748-.542.876-.129.924.029" transform="translate(-3.163 -0.352)" fill="#113277"/>
        <g id="Group_196" data-name="Group 196" transform="translate(4.987 1.802)" opacity="0.19">
          <g id="Group_195" data-name="Group 195">
            <g id="Group_194" data-name="Group 194" clip-path="url(#clip-path-3)">
              <path id="Path_441" data-name="Path 441" d="M8.067,6.721c1.3-2.032.218-3.335.908-3.793s1.577,1.5.575,2.86S7.522,7.57,8.067,6.721" transform="translate(-7.916 -2.86)" fill="#fff"/>
            </g>
          </g>
        </g>
        <path id="Path_442" data-name="Path 442" d="M8.615,2.09a1.735,1.735,0,0,0,.953-.042,2.153,2.153,0,0,0,.444-.186,1.49,1.49,0,0,0,.385-.292,1.478,1.478,0,0,1-.807.549,1.389,1.389,0,0,1-.974-.03" transform="translate(-3.188 -0.581)" fill="#ffc9bd"/>
        <path id="Path_443" data-name="Path 443" d="M8.988,11.145C6.192,12.5,5.3,13.448,3.4,12.593a1.67,1.67,0,0,0,.818-1.211A6.135,6.135,0,0,0,6.25,9.424,6.332,6.332,0,0,1,9.3,6.977a1.616,1.616,0,0,0,.865-.963A5.307,5.307,0,0,1,11.752,6s.029,3.781-2.764,5.14" transform="translate(-1.259 -2.202)" fill="#113277"/>
      </g>
    </g>
    <g id="Group_200" data-name="Group 200" transform="translate(0.631 10.111)">
      <g id="Group_199" data-name="Group 199" clip-path="url(#clip-path-4)">
        <rect id="Rectangle_115" data-name="Rectangle 115" width="28.827" height="24.679" transform="matrix(0.199, -0.98, 0.98, 0.199, -5.029, 24.334)" fill="url(#radial-gradient)"/>
      </g>
    </g>
    <g id="Group_214" data-name="Group 214" transform="translate(0 0)">
      <g id="Group_213" data-name="Group 213" clip-path="url(#clip-path)">
        <g id="Group_203" data-name="Group 203" transform="translate(0.86 10.411)" opacity="0.71" style="mix-blend-mode: multiply;isolation: isolate">
          <g id="Group_202" data-name="Group 202">
            <g id="Group_201" data-name="Group 201" clip-path="url(#clip-path-6)">
              <path id="Path_445" data-name="Path 445" d="M6.211,19.965c-.535,1.478-1.838.86-2.978,2.7-.99,1.607-1.171,2.647-1.868,1.79a11.858,11.858,0,0,1,2.643-5.884,7.364,7.364,0,0,1,3.173-2.049c.008,0,.012.012.021.016,1.988,1.678-.455,1.945-.991,3.423" transform="translate(-1.365 -16.525)" fill="#e6ac8c"/>
            </g>
          </g>
        </g>
        <g id="Group_206" data-name="Group 206" transform="translate(12.24 11.09)" opacity="0.71" style="mix-blend-mode: multiply;isolation: isolate">
          <g id="Group_205" data-name="Group 205">
            <g id="Group_204" data-name="Group 204" clip-path="url(#clip-path-7)">
              <path id="Path_446" data-name="Path 446" d="M26.481,23.6c-1.906,1.933-3.122-.976-4.658-1.577-1.28-.5-3.094-1.691-2.119-4.418a32.409,32.409,0,0,1,4.954,3.881A7.038,7.038,0,0,1,26.481,23.6" transform="translate(-19.428 -17.602)" fill="#e6ac8c"/>
            </g>
          </g>
        </g>
        <g id="Group_209" data-name="Group 209" transform="translate(6.449 14.837)" opacity="0.19">
          <g id="Group_208" data-name="Group 208">
            <g id="Group_207" data-name="Group 207" clip-path="url(#clip-path-8)">
              <path id="Path_447" data-name="Path 447" d="M11,24.593c-2.262,3.175,1.314,5.674.341,8.337s4.593,6.89,4.059,9.132,5.809-1.012,7.423-8.756-4.785-3.638-6.37-7.017S12.1,23.054,11,24.593" transform="translate(-10.237 -23.55)" fill="#fff"/>
            </g>
          </g>
        </g>
        <g id="Group_212" data-name="Group 212" transform="translate(10.914 19.143)" opacity="0.19">
          <g id="Group_211" data-name="Group 211">
            <g id="Group_210" data-name="Group 210" clip-path="url(#clip-path-9)">
              <path id="Path_448" data-name="Path 448" d="M17.528,32.385c1.749,4.014,5.286,6.953,6.362,2.626s-8.034-6.464-6.362-2.626" transform="translate(-17.323 -30.386)" fill="#fff"/>
            </g>
          </g>
        </g>
        <path id="Path_449" data-name="Path 449" d="M18.142,39.032a1.756,1.756,0,0,1,.209-.8,4.513,4.513,0,0,1,.485-.711,1.934,1.934,0,0,0,.365-.844,1.614,1.614,0,0,0-.153-.924A2.929,2.929,0,0,0,18.516,35,7.11,7.11,0,0,0,17.1,33.914a7.875,7.875,0,0,1-1.412-.966,2.566,2.566,0,0,1-.84-1.346A2.822,2.822,0,0,1,15,30.053v0c.171-.207.337-.419.505-.627.466-.587.927-1.177,1.351-1.8.1-.139.193-.283.286-.427.112-.174.219-.348.318-.531a8.241,8.241,0,0,0,.842-2.032,8.1,8.1,0,0,0,.161-2.825.01.01,0,0,0,0-.006.3.3,0,0,0-.338-.259.306.306,0,0,0-.26.34,7.418,7.418,0,0,1-.089,2.625,8.157,8.157,0,0,1-1.039,2.434c-.036.057-.069.115-.105.172-.088.028-.18.052-.27.074a7.226,7.226,0,0,1-1.411.149,16.747,16.747,0,0,0-2.965.2,4.073,4.073,0,0,0-1.411.559,3.908,3.908,0,0,0-1.118,1.025,2.13,2.13,0,0,0-.3.707,2.279,2.279,0,0,1-.225.67,2.8,2.8,0,0,1-1.086.905v0a.05.05,0,0,0-.021.072A.053.053,0,0,0,7.9,31.5a2.947,2.947,0,0,0,1.181-.914,2.431,2.431,0,0,0,.272-.709,1.962,1.962,0,0,1,.294-.628,3.721,3.721,0,0,1,1.077-.907,3.87,3.87,0,0,1,1.328-.461,16.792,16.792,0,0,1,2.9-.064,8.547,8.547,0,0,0,1.249-.059c-.123.186-.253.366-.385.548-.209.289-.423.576-.641.861-.253.335-.5.662-.764.983v0c-.311.382-.629.753-.972,1.113-.311.333-.628.661-.936,1.009a4.6,4.6,0,0,0-.789,1.172,3.069,3.069,0,0,0-.241,1.4,6.291,6.291,0,0,0,.242,1.375,18.824,18.824,0,0,0,.937,2.587,4.143,4.143,0,0,1,.4,1.281,2.754,2.754,0,0,1-.3,1.29.061.061,0,0,0,.027.076.056.056,0,0,0,.074-.028,2.882,2.882,0,0,0,.338-1.346,4.248,4.248,0,0,0-.378-1.339,18.946,18.946,0,0,1-.875-2.581,3.861,3.861,0,0,1,.044-2.6,4.281,4.281,0,0,1,.764-1.075c.3-.331.63-.651.949-.982.205-.21.408-.423.6-.642a2.819,2.819,0,0,0,.076.847,3.013,3.013,0,0,0,1.032,1.549,8.093,8.093,0,0,0,1.508.961,6.761,6.761,0,0,1,1.389.988,1.8,1.8,0,0,1,.667,1.431,1.7,1.7,0,0,1-.3.758,4.637,4.637,0,0,0-.472.754,1.976,1.976,0,0,0-.2.884,1.571,1.571,0,0,0,.311.843.057.057,0,0,0,.077.015.054.054,0,0,0,.014-.076,1.48,1.48,0,0,1-.26-.787" transform="translate(-2.892 -7.969)" fill="#c61b1e"/>
        <path id="Path_450" data-name="Path 450" d="M25.091,29.088a2.877,2.877,0,0,0,.826.949c.163.135.312.243.469.365a5.8,5.8,0,0,1,.43.394,2.855,2.855,0,0,1,.655.943,1.308,1.308,0,0,1,0,1.094l-.005.009a.057.057,0,0,0,.02.074.056.056,0,0,0,.077-.018,1.434,1.434,0,0,0,.074-1.218,3.037,3.037,0,0,0-.646-1.043,5.961,5.961,0,0,0-.429-.436c-.151-.13-.318-.265-.455-.394a2.554,2.554,0,0,1-.689-.871,2.826,2.826,0,0,1,.223-2.162,9.5,9.5,0,0,0,.752-2.34v-.013a.3.3,0,1,0-.6-.05v.009a5.528,5.528,0,0,1-.221,1.106c-.115.37-.251.743-.382,1.125a5.7,5.7,0,0,0-.3,1.207,2.237,2.237,0,0,0,.2,1.27" transform="translate(-9.204 -8.915)" fill="#c61b1e"/>
        <path id="Path_451" data-name="Path 451" d="M24.884,33.322a.663.663,0,0,0-.27-.331.636.636,0,0,0-.423-.079,1.7,1.7,0,0,0-.727.331,3.572,3.572,0,0,1-.3.205.794.794,0,0,1-.295.121c-.124.039-.2-.255-.349-.485a1.011,1.011,0,0,0-.726-.445,1.973,1.973,0,0,0-.411-.016,2.069,2.069,0,0,1-.351.005,1.255,1.255,0,0,1-.605-.236,1.7,1.7,0,0,1-.43-.511,3.12,3.12,0,0,1-.345-1.353c0-.062,0-.123,0-.184.57-.777,1.182-1.54,1.7-2.38A10.271,10.271,0,0,0,22.478,25.6a8.687,8.687,0,0,0,.392-2.609.013.013,0,0,1,0-.009.3.3,0,0,0-.6.016v0a8.107,8.107,0,0,1-.307,2.445,9.623,9.623,0,0,1-1.018,2.273c-.374.63-.8,1.228-1.232,1.833-.064.088-.129.18-.193.27-.12.169-.237.336-.355.508a11.57,11.57,0,0,0-1.006,1.7,5.636,5.636,0,0,0-.42,1.25,2.065,2.065,0,0,0,.143,1.349,3.2,3.2,0,0,0,.862,1.013c.333.28.689.521,1,.793a1.289,1.289,0,0,1,.572.988,1.335,1.335,0,0,1-.182.564l-.291.57c-.192.384-.391.761-.556,1.164a2.092,2.092,0,0,0-.164.639A1.031,1.031,0,0,0,19.3,41a.065.065,0,0,0,.08.016.06.06,0,0,0,.016-.079.907.907,0,0,1-.151-.571,1.939,1.939,0,0,1,.169-.592c.168-.387.376-.762.575-1.138l.3-.564a1.544,1.544,0,0,0,.222-.639,1.118,1.118,0,0,0-.18-.669,2.293,2.293,0,0,0-.441-.5c-.324-.293-.672-.542-.988-.818a2.958,2.958,0,0,1-.766-.942,1.766,1.766,0,0,1-.09-1.154,5.284,5.284,0,0,1,.421-1.166,10.739,10.739,0,0,1,.75-1.244,3.309,3.309,0,0,0,.413,1.152,2.064,2.064,0,0,0,.566.612,1.6,1.6,0,0,0,.8.273,2.225,2.225,0,0,0,.4-.02,1.532,1.532,0,0,1,.344,0,.7.7,0,0,1,.532.293,3.145,3.145,0,0,1,.187.318.69.69,0,0,0,.151.181.369.369,0,0,0,.267.076.932.932,0,0,0,.4-.171,3.673,3.673,0,0,0,.313-.228,1.485,1.485,0,0,1,.623-.315.441.441,0,0,1,.51.282,1.561,1.561,0,0,1-.2,1.372.057.057,0,0,0,.014.08.054.054,0,0,0,.077-.015,1.893,1.893,0,0,0,.308-.714,1.409,1.409,0,0,0-.046-.786" transform="translate(-6.542 -8.393)" fill="#135eab"/>
      </g>
    </g>
    <g id="Group_216" data-name="Group 216" transform="translate(3.732 0.001)">
      <g id="Group_215" data-name="Group 215" clip-path="url(#clip-path-10)">
        <rect id="Rectangle_121" data-name="Rectangle 121" width="20.273" height="23.199" transform="translate(-3.683 15.58) rotate(-78.498)" fill="url(#radial-gradient-2)"/>
      </g>
    </g>
    <g id="Group_239" data-name="Group 239" transform="translate(0 0)">
      <g id="Group_238" data-name="Group 238" clip-path="url(#clip-path)">
        <path id="Path_453" data-name="Path 453" d="M19.916,15.388c.278.37-.992.98-2.585,1.571-1.7-1.475-4.605-3.193-5.752-2.776-1.482.54-6.1,1.217-5.62.017.2-.553.4-1.051.606-1.5,1.818,1.537,3.224,1.835,4.4.832,1.374-1.172,1.708-.416,2.258-2.048s1.14-2.042,4.078-1.561a22.09,22.09,0,0,0,3.762.335,12.562,12.562,0,0,1,1.063,2.528,12.668,12.668,0,0,0,2.359-.91,2.484,2.484,0,0,1,1.2,1.608,5.5,5.5,0,0,1-2.835.823c-2.477.042-3.622.183-2.943,1.083" transform="translate(-2.192 -3.601)" fill="#a71b1c"/>
        <path id="Path_454" data-name="Path 454" d="M7.362,37.41a4.142,4.142,0,0,0-2.183-2.442,4.452,4.452,0,0,1-1.3-.92,2.356,2.356,0,0,1-.549-1.417,9.688,9.688,0,0,1,.042-1.612c0-.036.006-.076.008-.112.033,0,.066.007.1.008a2.008,2.008,0,0,0,.8-.107,1.753,1.753,0,0,0,.678-.449,3.768,3.768,0,0,0,.738-1.3,12.8,12.8,0,0,0,.411-1.383c.051-.236.084-.477.112-.714a4.93,4.93,0,0,1,.1-.673c.086-.394.595-.524,1.03-.641.455-.11.915-.2,1.38-.294a3.7,3.7,0,0,0,.7-.19.757.757,0,0,0,.307-.229,1.249,1.249,0,0,0,.174-.327.057.057,0,0,0-.1-.043.741.741,0,0,1-.43.468,4.118,4.118,0,0,1-.675.151c-.466.071-.932.145-1.4.237a3.818,3.818,0,0,0-.7.2,1.192,1.192,0,0,0-.336.217.9.9,0,0,0-.217.355,5.007,5.007,0,0,0-.14.72c-.037.229-.08.457-.138.678a11.762,11.762,0,0,1-.454,1.31,3.329,3.329,0,0,1-.685,1.122,1.326,1.326,0,0,1-1.1.353l-.1-.011c.02-.337.027-.676.017-1.019a6,6,0,0,0-.273-1.692A6.726,6.726,0,0,0,2.42,26.11s-.005-.008-.008-.008a.3.3,0,0,0-.5.338l0,0a6.013,6.013,0,0,1,.738,1.383,5.535,5.535,0,0,1,.306,1.545c.021.293.027.592.022.889q0,.289-.016.576c0,.052-.005.1-.007.152a9.856,9.856,0,0,0,.021,1.68,2.673,2.673,0,0,0,.686,1.576,4.6,4.6,0,0,0,1.409.931,4.721,4.721,0,0,1,1.322.91,3.436,3.436,0,0,1,.856,1.347v.006a.059.059,0,0,0,.069.038.058.058,0,0,0,.038-.069" transform="translate(-0.689 -9.074)" fill="#135eab"/>
        <path id="Path_455" data-name="Path 455" d="M26.1,22.831c-.322.211-1.063.079-1.552-.883-.331-.648-1.1-.835-1.709-1.358a2.215,2.215,0,0,1-.693-1.089c-.632-2.161.525-3.638,2.231-2.975a3.794,3.794,0,0,1,2.073,2,2.521,2.521,0,0,1,.117,1.871c-.5,1.289-.147,2.22-.467,2.431" transform="translate(-8.13 -6.055)" fill="#e6ac8c"/>
        <path id="Path_456" data-name="Path 456" d="M6.571,17.579C6.089,18.3,5,18.2,4.686,19.725a1.165,1.165,0,0,1-.282.617c-.477.486-1.332-.059-1.959,1.63-.782,2.112-.97,2.642-1.514.788s-1.4-2.637-.612-4.4a7.162,7.162,0,0,1,1-1.644h0A2.427,2.427,0,0,1,4.2,15.764c2.415,1,2.853,1.09,2.374,1.815" transform="translate(0 -5.768)" fill="#e6ac8c"/>
        <g id="Group_219" data-name="Group 219" transform="translate(5.368 2.901)" opacity="0.19">
          <g id="Group_218" data-name="Group 218">
            <g id="Group_217" data-name="Group 217" clip-path="url(#clip-path-12)">
              <path id="Path_457" data-name="Path 457" d="M9.3,8.943C11.669,7.377,12.951,7.766,13.25,6.3s.769-2.332,1.354-1.115,2.9,1.02.733,2.128-4.143.947-5.6,2.86S8.125,9.723,9.3,8.943" transform="translate(-8.521 -4.605)" fill="#fff"/>
            </g>
          </g>
        </g>
        <g id="Group_222" data-name="Group 222" transform="translate(14.068 1.21)" opacity="0.19">
          <g id="Group_221" data-name="Group 221">
            <g id="Group_220" data-name="Group 220" clip-path="url(#clip-path-13)">
              <path id="Path_458" data-name="Path 458" d="M22.431,4.742c1.052-.9,1.738-2.761,2.219-2.821S24.6,3.4,23.9,4.667s-1.923.467-1.465.074" transform="translate(-22.33 -1.92)" fill="#fff"/>
            </g>
          </g>
        </g>
        <path id="Path_459" data-name="Path 459" d="M14.377.809A2.606,2.606,0,0,1,15.094.6a2.859,2.859,0,0,1,.748-.018c-.248.03-.493.052-.736.093s-.484.087-.728.139" transform="translate(-5.319 -0.207)" fill="#ffc9bd"/>
        <path id="Path_460" data-name="Path 460" d="M25.5.459a1.78,1.78,0,0,1,1.033.06,1.738,1.738,0,0,1,.457.261,1.08,1.08,0,0,1,.326.4,1.33,1.33,0,0,0-.361-.358,1.92,1.92,0,0,0-.449-.236,2.063,2.063,0,0,0-.493-.12A2.8,2.8,0,0,0,25.5.459" transform="translate(-9.436 -0.151)" fill="#ffc9bd"/>
        <path id="Path_461" data-name="Path 461" d="M1.792,18.224a2.166,2.166,0,0,0-.318,1.254,6.418,6.418,0,0,0,.172,1.3c.086.432.208.857.318,1.287a3.751,3.751,0,0,1,.19,1.315,2.05,2.05,0,0,0-.109-.649c-.06-.213-.125-.424-.192-.635-.133-.423-.255-.852-.353-1.287a5.784,5.784,0,0,1-.14-1.335,1.961,1.961,0,0,1,.433-1.252" transform="translate(-0.502 -6.743)" fill="#e57f3d"/>
        <path id="Path_462" data-name="Path 462" d="M3.01,18.061c.007.252,0,.5.029.746a4.6,4.6,0,0,0,.117.726,5.64,5.64,0,0,0,.222.7,2.436,2.436,0,0,1,.218.719,1.321,1.321,0,0,0-.149-.34l-.175-.333a3.388,3.388,0,0,1-.262-.714,3.294,3.294,0,0,1,0-1.508" transform="translate(-1.081 -6.682)" fill="#e57f3d"/>
        <path id="Path_463" data-name="Path 463" d="M3.865,16.757a4.783,4.783,0,0,0,.626,1.571c.137.249.285.494.418.748a2.49,2.49,0,0,1,.308.806,3.982,3.982,0,0,0-.408-.748c-.156-.239-.308-.483-.449-.734A4.773,4.773,0,0,1,4,17.611a2.227,2.227,0,0,1-.135-.854" transform="translate(-1.429 -6.2)" fill="#e57f3d"/>
        <path id="Path_464" data-name="Path 464" d="M4.857,16.939a9.935,9.935,0,0,1,.806.695c.256.244.506.49.752.75a2.882,2.882,0,0,1-.449-.294,5.088,5.088,0,0,1-.406-.347c-.129-.123-.254-.249-.37-.384a4.306,4.306,0,0,1-.332-.42" transform="translate(-1.797 -6.267)" fill="#e57f3d"/>
        <path id="Path_465" data-name="Path 465" d="M5.981,16.823a5.543,5.543,0,0,0,.5.3,4.171,4.171,0,0,0,.526.228,6.137,6.137,0,0,0,1.123.287,2.182,2.182,0,0,1-.594,0,2.668,2.668,0,0,1-.58-.142,2.262,2.262,0,0,1-.976-.667" transform="translate(-2.213 -6.224)" fill="#e57f3d"/>
        <path id="Path_466" data-name="Path 466" d="M26.744,18.125a3.263,3.263,0,0,1,.65.86,3.1,3.1,0,0,1,.319,1.039,5.091,5.091,0,0,1,.008,1.082c-.03.358-.077.711-.125,1.067-.027-.717.06-1.433-.032-2.129a3.65,3.65,0,0,0-.274-1.009,4.708,4.708,0,0,0-.546-.909" transform="translate(-9.895 -6.706)" fill="#e57f3d"/>
        <path id="Path_467" data-name="Path 467" d="M26.593,19.453a5.426,5.426,0,0,1,.21,1.45,3.177,3.177,0,0,1-.324,1.428c.05-.24.1-.476.132-.713a6.026,6.026,0,0,0,.043-.715c0-.239-.011-.479-.021-.721s-.032-.483-.038-.728" transform="translate(-9.797 -7.197)" fill="#e57f3d"/>
        <path id="Path_468" data-name="Path 468" d="M25.743,17.506a4.216,4.216,0,0,1-.055,1.746c-.064.285-.142.566-.228.843a3.329,3.329,0,0,0-.183.843,2.26,2.26,0,0,1,.071-.871l.193-.847a7.578,7.578,0,0,0,.2-1.714" transform="translate(-9.345 -6.477)" fill="#e57f3d"/>
        <path id="Path_469" data-name="Path 469" d="M24.812,17.791a11.536,11.536,0,0,1-.213,1.383c-.092.456-.205.9-.259,1.367a2.774,2.774,0,0,1,0-.7c.023-.234.066-.464.111-.693a12.057,12.057,0,0,1,.36-1.353" transform="translate(-8.997 -6.582)" fill="#e57f3d"/>
        <path id="Path_470" data-name="Path 470" d="M3.613,17.939a7.124,7.124,0,0,0,.121.777,5.344,5.344,0,0,0,.234.74c.094.242.211.476.316.719a1.577,1.577,0,0,1,.183.773,2.128,2.128,0,0,0-.287-.723,6.161,6.161,0,0,1-.352-.714,3.371,3.371,0,0,1-.208-.775,3.131,3.131,0,0,1-.008-.8" transform="translate(-1.329 -6.637)" fill="#e57f3d"/>
        <path id="Path_471" data-name="Path 471" d="M4.86,17.817c.228.309.445.61.68.907.113.151.232.3.335.463a1.554,1.554,0,0,1,.23.529,7.7,7.7,0,0,0-.684-.9,3.531,3.531,0,0,1-.561-1" transform="translate(-1.798 -6.592)" fill="#e57f3d"/>
        <path id="Path_472" data-name="Path 472" d="M2.276,19.211a2.7,2.7,0,0,0,.093.9c.076.292.173.579.273.866s.2.575.286.872a2.266,2.266,0,0,1,.11.914,3.2,3.2,0,0,0-.219-.879L2.5,21.024a5.709,5.709,0,0,1-.244-.891,2.041,2.041,0,0,1,.02-.922" transform="translate(-0.819 -7.108)" fill="#e57f3d"/>
        <path id="Path_473" data-name="Path 473" d="M.8,21.613a2.668,2.668,0,0,0,.167.946c.1.306.21.611.318.919a8.686,8.686,0,0,1,.28.941,2.6,2.6,0,0,1,.067.978,3.7,3.7,0,0,0-.178-.949c-.1-.308-.2-.614-.31-.92S.931,22.91.855,22.59A2.073,2.073,0,0,1,.8,21.613" transform="translate(-0.282 -7.997)" fill="#e57f3d"/>
        <path id="Path_474" data-name="Path 474" d="M24.057,17.353a3.781,3.781,0,0,0-.559,1.395c-.057.246-.1.5-.15.747a3.7,3.7,0,0,1-.2.744c.042-.254.059-.507.086-.762a6.446,6.446,0,0,1,.118-.762,2.543,2.543,0,0,1,.706-1.362" transform="translate(-8.564 -6.42)" fill="#e57f3d"/>
        <path id="Path_475" data-name="Path 475" d="M27.372,21.943c0,.193,0,.382.009.571s.032.374.057.563a2.686,2.686,0,0,1-.031,1.15,4.7,4.7,0,0,0-.038-.568l-.08-.564a2.6,2.6,0,0,1,.083-1.152" transform="translate(-10.087 -8.119)" fill="#e57f3d"/>
        <path id="Path_476" data-name="Path 476" d="M26.066,21.5a6.013,6.013,0,0,1-.127.762c-.03.124-.058.249-.093.372s-.072.246-.1.373a1.214,1.214,0,0,1-.013-.393,2.813,2.813,0,0,1,.06-.385,2.625,2.625,0,0,1,.274-.729" transform="translate(-9.517 -7.953)" fill="#e57f3d"/>
        <path id="Path_477" data-name="Path 477" d="M25.143,19.292a3.516,3.516,0,0,1-.068.593c-.033.2-.081.387-.124.579l-.134.573a3.778,3.778,0,0,0-.088.581,1.725,1.725,0,0,1-.026-.6,4.487,4.487,0,0,1,.1-.588c.093-.387.215-.76.338-1.138" transform="translate(-9.135 -7.138)" fill="#e57f3d"/>
        <path id="Path_478" data-name="Path 478" d="M23.942,19.915a6.007,6.007,0,0,0-.14.9l-.067.912a2.176,2.176,0,0,1-.083-.459,2.743,2.743,0,0,1,0-.466,2.4,2.4,0,0,1,.089-.461,1.494,1.494,0,0,1,.2-.423" transform="translate(-8.748 -7.368)" fill="#e57f3d"/>
        <g id="Group_225" data-name="Group 225" transform="translate(2.778 26.561)" opacity="0.19">
          <g id="Group_224" data-name="Group 224">
            <g id="Group_223" data-name="Group 223" clip-path="url(#clip-path-14)">
              <path id="Path_479" data-name="Path 479" d="M4.53,42.719c1.121,2.605,3.139,3.636,4.1,4.859s2.036.679.257-.829-2.441-1.29-3.063-2.857-1.789-2.332-1.29-1.173" transform="translate(-4.409 -42.159)" fill="#fff"/>
            </g>
          </g>
        </g>
        <path id="Path_480" data-name="Path 480" d="M25.893,27.042a6.943,6.943,0,0,0-.364.839,4.148,4.148,0,0,0-.207.883,2.833,2.833,0,0,0,.333,1.756,2.3,2.3,0,0,1-.365-.842,2.855,2.855,0,0,1-.043-.923,3.863,3.863,0,0,1,.228-.895,4.864,4.864,0,0,1,.418-.819" transform="translate(-9.335 -10.005)" fill="#ffc9bd"/>
        <path id="Path_481" data-name="Path 481" d="M23.922,26.826a12.294,12.294,0,0,1-.845,2.153c-.18.342-.373.677-.585,1a5.709,5.709,0,0,1-.718.907,8.517,8.517,0,0,0,.676-.934c.2-.326.389-.663.56-1.007a16.449,16.449,0,0,0,.912-2.119" transform="translate(-8.056 -9.925)" fill="#ffc9bd"/>
        <path id="Path_482" data-name="Path 482" d="M22.6,26.948a4.588,4.588,0,0,1-.437,1.152c-.185.368-.389.726-.6,1.079s-.451.689-.69,1.024a11.215,11.215,0,0,1-.762.97c.25-.326.486-.662.721-1s.455-.684.667-1.034.43-.7.622-1.062a5.946,5.946,0,0,0,.481-1.13" transform="translate(-7.441 -9.971)" fill="#ffc9bd"/>
        <path id="Path_483" data-name="Path 483" d="M16.062,30.887c.544-.033,1.088-.042,1.632-.059l.815-.02a6.345,6.345,0,0,0,.812-.051,4.27,4.27,0,0,1-.81.109c-.272.019-.544.027-.816.037-.545.009-1.089.013-1.634-.016" transform="translate(-5.943 -11.38)" fill="#ffc9bd"/>
        <path id="Path_484" data-name="Path 484" d="M21.2,37.49a2.5,2.5,0,0,0,.618.535,2.665,2.665,0,0,0,.784.228,4.055,4.055,0,0,1-.418-.028,1.249,1.249,0,0,1-.4-.135,1.466,1.466,0,0,1-.331-.264,1.88,1.88,0,0,1-.25-.336" transform="translate(-7.842 -13.871)" fill="#ffc9bd"/>
        <path id="Path_485" data-name="Path 485" d="M19.753,39.365c.123.123.255.237.387.347s.269.218.411.318.281.2.425.3.289.194.442.278a4.036,4.036,0,0,1-.91-.517,3.511,3.511,0,0,1-.755-.726" transform="translate(-7.309 -14.565)" fill="#ffc9bd"/>
        <path id="Path_486" data-name="Path 486" d="M3.8,29.776a3.862,3.862,0,0,1,.181,1.12,8.544,8.544,0,0,1-.023,1.136c-.025-.379-.031-.756-.052-1.132-.005-.188-.019-.376-.032-.564a3.82,3.82,0,0,0-.074-.56" transform="translate(-1.407 -11.017)" fill="#ffc9bd"/>
        <path id="Path_487" data-name="Path 487" d="M7.907,29.52a7.4,7.4,0,0,1-.318,1.188A3.771,3.771,0,0,1,7.022,31.8a4.262,4.262,0,0,0,.275-.546c.079-.187.154-.377.221-.57.142-.382.26-.774.388-1.163" transform="translate(-2.598 -10.922)" fill="#ffc9bd"/>
        <g id="Group_228" data-name="Group 228" transform="translate(1.323 9.822)" opacity="0.71" style="mix-blend-mode: multiply;isolation: isolate">
          <g id="Group_227" data-name="Group 227">
            <g id="Group_226" data-name="Group 226" clip-path="url(#clip-path-15)">
              <path id="Path_488" data-name="Path 488" d="M7.349,17.579c-.482.725-1.575.622-1.885,2.146a1.165,1.165,0,0,1-.282.617A2.742,2.742,0,0,0,2.1,16.72a2.427,2.427,0,0,1,2.874-.956c2.415,1,2.853,1.09,2.374,1.815" transform="translate(-2.1 -15.591)" fill="#e6ac8c"/>
            </g>
          </g>
        </g>
        <g id="Group_231" data-name="Group 231" transform="translate(13.842 10.311)" opacity="0.71" style="mix-blend-mode: multiply;isolation: isolate">
          <g id="Group_230" data-name="Group 230">
            <g id="Group_229" data-name="Group 229" clip-path="url(#clip-path-16)">
              <path id="Path_489" data-name="Path 489" d="M26.451,18.528c-2.22-1.489-3.129-.277-3.611,2.061a2.22,2.22,0,0,1-.694-1.089c-.631-2.16.525-3.638,2.232-2.974a3.792,3.792,0,0,1,2.073,2" transform="translate(-21.972 -16.366)" fill="#e6ac8c"/>
            </g>
          </g>
        </g>
        <path id="Path_490" data-name="Path 490" d="M29.061,11.238a4.588,4.588,0,0,1-3.481,2.493,8.3,8.3,0,0,1-.965.111c-2.717.151-5.479-.332-5.685,1.075s-1.106,1.285-.717,2.558-5.4-.04-4.887-.74-2.041-.455-1.43-1.252a1.13,1.13,0,0,0,.123-.2c.283-.593-.631-.6.94-1.273,2.269-.969,1.984-.594,2.528-2.012s1.554-1.663,4.6-1.5,4.991.6,6.467-1.072a2.477,2.477,0,0,1,2.512,1.8" transform="translate(-4.367 -3.478)" fill="#135eab"/>
        <path id="Path_491" data-name="Path 491" d="M37.553,11.3c-.118.166-.684-.035-1.263-.447s-.953-.882-.835-1.048.684.035,1.263.447.953.882.835,1.048" transform="translate(-13.11 -3.606)" fill="#113277"/>
        <g id="Group_234" data-name="Group 234" transform="translate(9.872 7.331)" opacity="0.19">
          <g id="Group_233" data-name="Group 233">
            <g id="Group_232" data-name="Group 232" clip-path="url(#clip-path-17)">
              <path id="Path_492" data-name="Path 492" d="M16.043,15.1c1.711-1.1.04-2.892,3.03-3.243s6.037.758,7.576.033,3,.258.207,1-7.294-.837-7.874.181.182,2-1.522,2.57-2.229-.02-1.417-.543" transform="translate(-15.669 -11.637)" fill="#fff"/>
            </g>
          </g>
        </g>
        <path id="Path_493" data-name="Path 493" d="M35.166,9.988a.882.882,0,0,0,.238.679,2.336,2.336,0,0,0,.568.474,4.039,4.039,0,0,0,.663.341,1.64,1.64,0,0,0,.723.157,1.453,1.453,0,0,1-.744-.1,3.594,3.594,0,0,1-.682-.332,2.216,2.216,0,0,1-.572-.5.845.845,0,0,1-.193-.715" transform="translate(-13.004 -3.695)" fill="#ffc9bd"/>
        <g id="Group_237" data-name="Group 237" transform="translate(19.485 8.756)" opacity="0.19">
          <g id="Group_236" data-name="Group 236">
            <g id="Group_235" data-name="Group 235" clip-path="url(#clip-path-18)">
              <path id="Path_494" data-name="Path 494" d="M31.994,15.174c2.016-.471,2.39-.67,2.752-1.106s-.355.085-.67.217a15.194,15.194,0,0,1-2.8.86c-.855.135.064.113.719.029" transform="translate(-30.929 -13.897)" fill="#fff"/>
            </g>
          </g>
        </g>
        <path id="Path_495" data-name="Path 495" d="M25.58,15.96a8.3,8.3,0,0,1-.965.111c-2.717.15-5.479-.332-5.685,1.075s-1.106,1.285-.717,2.558-5.4-.04-4.887-.739-2.041-.455-1.43-1.252a1.154,1.154,0,0,0,.123-.2c.73.787,2.972.341,2.45,1.2-.551.916,3.479,2.043,3.28.489s.95-1.921.821-2.948,1.874-.969,3.4-.556a11.5,11.5,0,0,0,3.606.258" transform="translate(-4.367 -5.707)" fill="#113277"/>
      </g>
    </g>
  </g>
</svg>
