<svg id="Group_660" data-name="Group 660" xmlns="http://www.w3.org/2000/svg" xmlns:xlink="http://www.w3.org/1999/xlink" width="37.361" height="25.969" viewBox="0 0 37.361 25.969">
  <defs>
    <clipPath id="clip-path">
      <rect id="Rectangle_90" data-name="Rectangle 90" width="37.361" height="25.969" fill="none"/>
    </clipPath>
    <clipPath id="clip-path-2">
      <path id="Path_381" data-name="Path 381" d="M6.89,4.993C4.057,5.6,1.484,6.64.5,9.755s-.562,6.836,1.753,11.03c2.128,3.858,3.715,7.109,5.286,6.711a1.333,1.333,0,0,0,.405-.186c1.841-1.227,2.84-4.486,5.6-6.829s8.539-4.556,8.867-6.864A9.525,9.525,0,0,0,20.928,8.59,8.621,8.621,0,0,0,17.32,4.767a10.5,10.5,0,0,0-3.836-.6,33.009,33.009,0,0,0-6.594.827" transform="translate(0 -4.166)" fill="none"/>
    </clipPath>
    <radialGradient id="radial-gradient" cx="0.497" cy="0.119" r="0.636" gradientTransform="matrix(1.022, 0, 0, -1, -0.002, 1.873)" gradientUnits="objectBoundingBox">
      <stop offset="0" stop-color="#fec5ba"/>
      <stop offset="1" stop-color="#bc331a"/>
    </radialGradient>
    <clipPath id="clip-path-3">
      <path id="Path_382" data-name="Path 382" d="M17.453,15.4c-1.788.567-5.608,1.644-7.046,4.872-1.353,3.038-1.975,7,.589,9.87a1.333,1.333,0,0,0,.405-.186c1.841-1.227,2.84-4.486,5.6-6.829s8.539-4.556,8.867-6.864a9.525,9.525,0,0,0-1.484-5.027C22.528,12.5,18.78,14.986,17.453,15.4" transform="translate(-9.233 -11.239)" fill="none"/>
    </clipPath>
    <linearGradient id="linear-gradient" x1="-0.183" y1="0.998" x2="-0.152" y2="0.998" gradientUnits="objectBoundingBox">
      <stop offset="0" stop-color="#ae210f"/>
      <stop offset="1" stop-color="#720a05"/>
    </linearGradient>
    <clipPath id="clip-path-4">
      <rect id="Rectangle_74" data-name="Rectangle 74" width="37.361" height="25.968" fill="none"/>
    </clipPath>
    <clipPath id="clip-path-5">
      <path id="Path_384" data-name="Path 384" d="M30.865,1.434C27.841,2.616,27.922,4.7,27.5,6.755a7.781,7.781,0,0,0-.178,2.768s1.96,2.781,4.062,3.222,3.987-1.321,5.047-2.679S40.328,7.338,43.3,6.453s3.6-1.486,4.134-2.8A1.829,1.829,0,0,0,47.574,3V2.942q0-.062-.008-.124c-.11-1.076-1.36-2.143-4.62-2.6A24.3,24.3,0,0,0,39.6,0a25.594,25.594,0,0,0-8.74,1.434" transform="translate(-27.269 0)" fill="none"/>
    </clipPath>
    <radialGradient id="radial-gradient-2" cx="0.166" cy="0.001" r="0.737" gradientTransform="matrix(0.713, 0, 0, -1, -0.214, 3.49)" xlink:href="#radial-gradient"/>
    <clipPath id="clip-path-6">
      <path id="Path_385" data-name="Path 385" d="M38.008,4.215c-2,1.23-6.639,3.387-10.65,6.322,0,0,1.96,2.781,4.062,3.222s3.987-1.321,5.047-2.679,3.894-2.727,6.866-3.612,3.6-1.486,4.134-2.8a1.828,1.828,0,0,0,.139-.647V3.956q0-.062-.008-.124c-.3-.823-1.475-1.125-2.92-1.125a16.468,16.468,0,0,0-6.672,1.507" transform="translate(-27.358 -2.708)" fill="none"/>
    </clipPath>
    <linearGradient id="linear-gradient-2" x1="-0.819" y1="1.295" x2="-0.789" y2="1.295" xlink:href="#linear-gradient"/>
    <clipPath id="clip-path-8">
      <rect id="Rectangle_77" data-name="Rectangle 77" width="15.383" height="12.34" fill="none"/>
    </clipPath>
    <clipPath id="clip-path-9">
      <rect id="Rectangle_78" data-name="Rectangle 78" width="10.387" height="5.389" fill="none"/>
    </clipPath>
    <clipPath id="clip-path-10">
      <rect id="Rectangle_79" data-name="Rectangle 79" width="4.066" height="1.369" fill="none"/>
    </clipPath>
    <clipPath id="clip-path-11">
      <rect id="Rectangle_80" data-name="Rectangle 80" width="12.467" height="5.958" fill="none"/>
    </clipPath>
    <clipPath id="clip-path-12">
      <rect id="Rectangle_81" data-name="Rectangle 81" width="7.672" height="3.278" fill="none"/>
    </clipPath>
    <clipPath id="clip-path-13">
      <rect id="Rectangle_82" data-name="Rectangle 82" width="14.48" height="6.728" fill="none"/>
    </clipPath>
    <clipPath id="clip-path-14">
      <rect id="Rectangle_83" data-name="Rectangle 83" width="9.741" height="11.167" fill="none"/>
    </clipPath>
    <clipPath id="clip-path-15">
      <path id="Path_394" data-name="Path 394" d="M26.629,13.784c.362-1.175,1.312-1.875,1.046-3.373.2,1.677-1.385,2.94-1.55,3.847-1.9,2.434-1.856,4.254-2.589,6.481a5.988,5.988,0,0,0-1.046-2.372,1.979,1.979,0,0,0-2.751-.477,3.338,3.338,0,0,1-2.952.326,4.244,4.244,0,0,0-4.138.556c-.955.923-.826,3.406,2.787,2.66s4.738-4.187,6.3-2.7,1.529,2.844,1.757,5.189a.391.391,0,0,0,.611-.074,4.98,4.98,0,0,1-.149-2.009c.478-5.92,2.741-7.771,3.635-8.548s1.929-.3,3.419-1.589c-1.7,1.079-1.741.571-2.993,1.111a6.358,6.358,0,0,0,2.364-3.286c-1.057,2.643-2.939,3.095-3.756,4.26" transform="translate(-12.145 -9.524)" fill="none"/>
    </clipPath>
    <radialGradient id="radial-gradient-3" cx="0.261" cy="0.418" r="0.365" gradientTransform="matrix(0.808, 0, 0, -1, -0.058, 2.496)" gradientUnits="objectBoundingBox">
      <stop offset="0" stop-color="#d3dc75"/>
      <stop offset="1" stop-color="#77630e"/>
    </radialGradient>
    <clipPath id="clip-path-17">
      <rect id="Rectangle_86" data-name="Rectangle 86" width="5.23" height="2.685" fill="none"/>
    </clipPath>
    <clipPath id="clip-path-18">
      <rect id="Rectangle_87" data-name="Rectangle 87" width="3.792" height="1.518" fill="none"/>
    </clipPath>
    <clipPath id="clip-path-19">
      <rect id="Rectangle_88" data-name="Rectangle 88" width="2.367" height="0.303" fill="none"/>
    </clipPath>
  </defs>
  <g id="Group_140" data-name="Group 140" clip-path="url(#clip-path)">
    <g id="Group_95" data-name="Group 95" transform="translate(0 2.606)">
      <g id="Group_94" data-name="Group 94" clip-path="url(#clip-path-2)">
        <rect id="Rectangle_72" data-name="Rectangle 72" width="25.774" height="26.349" transform="matrix(0.993, -0.121, 0.121, 0.993, -3.342, 0.349)" fill="url(#radial-gradient)"/>
      </g>
    </g>
    <g id="Group_97" data-name="Group 97" transform="translate(5.775 7.03)">
      <g id="Group_96" data-name="Group 96" clip-path="url(#clip-path-3)">
        <rect id="Rectangle_73" data-name="Rectangle 73" width="20.186" height="18.989" transform="translate(-2.23 18.797) rotate(-85.652)" fill="url(#linear-gradient)"/>
      </g>
    </g>
    <g id="Group_99" data-name="Group 99" transform="translate(0 0)">
      <g id="Group_98" data-name="Group 98" clip-path="url(#clip-path-4)">
        <path id="Path_383" data-name="Path 383" d="M31.769,13.4c-3.706.1-2.345.306-4.439-.659s-2.752-.168-3.017-.91,1.864-3.288,1.805-4.889a9.686,9.686,0,0,0-.373-2.52s.949-1.173,3.264-.138S25.55,8,27.321,10.923,33.1,12.251,31.769,13.4" transform="translate(-9.098 -1.446)" fill="#e6ac8c"/>
      </g>
    </g>
    <g id="Group_101" data-name="Group 101" transform="translate(17.055)">
      <g id="Group_100" data-name="Group 100" clip-path="url(#clip-path-5)">
        <rect id="Rectangle_75" data-name="Rectangle 75" width="21.834" height="15.56" transform="matrix(0.993, -0.121, 0.121, 0.993, -1.667, 0.194)" fill="url(#radial-gradient-2)"/>
      </g>
    </g>
    <g id="Group_103" data-name="Group 103" transform="translate(17.111 1.694)">
      <g id="Group_102" data-name="Group 102" clip-path="url(#clip-path-6)">
        <rect id="Rectangle_76" data-name="Rectangle 76" width="20.647" height="23.245" transform="matrix(0.543, -0.84, 0.84, 0.543, -5.241, 8.103)" fill="url(#linear-gradient-2)"/>
      </g>
    </g>
    <g id="Group_126" data-name="Group 126" transform="translate(0 0)">
      <g id="Group_125" data-name="Group 125" clip-path="url(#clip-path-4)">
        <g id="Group_106" data-name="Group 106" transform="translate(0.99 3.563)" opacity="0.19">
          <g id="Group_105" data-name="Group 105">
            <g id="Group_104" data-name="Group 104" clip-path="url(#clip-path-8)">
              <path id="Path_386" data-name="Path 386" d="M1.6,13.4C2.009,7.11,7.851,6.287,12,5.78s6.869,1.331,3.349,4.628-8,.75-10.411,5.552S1.427,16.1,1.6,13.4" transform="translate(-1.583 -5.697)" fill="#fff"/>
            </g>
          </g>
        </g>
        <g id="Group_109" data-name="Group 109" transform="translate(4.062 3.923)" opacity="0.19">
          <g id="Group_108" data-name="Group 108">
            <g id="Group_107" data-name="Group 107" clip-path="url(#clip-path-9)">
              <path id="Path_387" data-name="Path 387" d="M6.618,10.95c2.115-4.566,6.032-4.421,8.014-4.663s3.789,2.791.173,3S5.589,13.172,6.618,10.95" transform="translate(-6.494 -6.273)" fill="#fff"/>
            </g>
          </g>
        </g>
        <g id="Group_112" data-name="Group 112" transform="translate(8.453 4.462)" opacity="0.19">
          <g id="Group_111" data-name="Group 111">
            <g id="Group_110" data-name="Group 110" clip-path="url(#clip-path-10)">
              <path id="Path_388" data-name="Path 388" d="M13.626,8.167c1.993-1.654,4.907-.977,3.65-.33s-4.388.943-3.65.33" transform="translate(-13.515 -7.134)" fill="#fff"/>
            </g>
          </g>
        </g>
        <g id="Group_115" data-name="Group 115" transform="translate(18.069 0.468)" opacity="0.19">
          <g id="Group_114" data-name="Group 114">
            <g id="Group_113" data-name="Group 113" clip-path="url(#clip-path-11)">
              <path id="Path_389" data-name="Path 389" d="M29.159,5.279c1.151-3.241,6.091-4.259,9.4-4.49s4.164.543-.134,1.515-5.006,1.1-6.593,2.393-3.7,3.469-2.676.581" transform="translate(-28.889 -0.748)" fill="#fff"/>
            </g>
          </g>
        </g>
        <g id="Group_118" data-name="Group 118" transform="translate(19.08 1.212)" opacity="0.19">
          <g id="Group_117" data-name="Group 117">
            <g id="Group_116" data-name="Group 116" clip-path="url(#clip-path-12)">
              <path id="Path_390" data-name="Path 390" d="M31.093,4.458c2.255-2.312,4.453-2.316,6.335-2.488s-.1.362-2.382,1.076-5.981,3.49-3.954,1.412" transform="translate(-30.506 -1.938)" fill="#fff"/>
            </g>
          </g>
        </g>
        <g id="Group_121" data-name="Group 121" transform="translate(18.283 3.34)" opacity="0.29" style="mix-blend-mode: overlay;isolation: isolate">
          <g id="Group_120" data-name="Group 120">
            <g id="Group_119" data-name="Group 119" clip-path="url(#clip-path-13)">
              <path id="Path_391" data-name="Path 391" d="M29.9,11.273C35.513,7.4,38.579,4.906,41.8,5.4c2.413.373,2.495,1.377.531,2.528-.655.384-2.247.228-3.346.627-1.982.719-4.089,2.222-6.3,2.847-2.694.762-4.49,1.047-2.78-.134" transform="translate(-29.232 -5.341)" fill="#fff"/>
            </g>
          </g>
        </g>
        <path id="Path_392" data-name="Path 392" d="M31.828,19.272a8.928,8.928,0,0,0,.372,3.044,7.981,7.981,0,0,1,.243,1.99,8.6,8.6,0,0,0,2.869,2.556c.045.372-.106.681-.421.72a5.255,5.255,0,0,1-2.4-1.785c.208,1.7-.3,2.391.849,5.156a.5.5,0,0,1-.84.378,11.17,11.17,0,0,1-1.46-4.34A16.173,16.173,0,0,0,28.6,20.1c.134-.452.873-.7,1.112-.412a7.947,7.947,0,0,1,.551,1.066,10.476,10.476,0,0,1,.332-1.682,1.94,1.94,0,0,1,1.231.2" transform="translate(-10.713 -7.126)" fill="#135eab"/>
        <g id="Group_124" data-name="Group 124" transform="translate(7.21 11.603)" opacity="0.29" style="mix-blend-mode: overlay;isolation: isolate">
          <g id="Group_123" data-name="Group 123">
            <g id="Group_122" data-name="Group 122" clip-path="url(#clip-path-14)">
              <path id="Path_393" data-name="Path 393" d="M11.577,28.012c.828-6.343,2.855-7.709,5.935-8.821S22.9,18.4,19.8,20.325s-4.929,5.793-5.821,7.529-2.783,3.071-2.4.158" transform="translate(-11.527 -18.552)" fill="#fff"/>
            </g>
          </g>
        </g>
      </g>
    </g>
    <g id="Group_128" data-name="Group 128" transform="translate(7.596 5.957)">
      <g id="Group_127" data-name="Group 127" clip-path="url(#clip-path-15)">
        <rect id="Rectangle_85" data-name="Rectangle 85" width="20.958" height="16.927" transform="translate(-2.217 0.216) rotate(-6.962)" fill="url(#radial-gradient-3)"/>
      </g>
    </g>
    <g id="Group_139" data-name="Group 139" transform="translate(0 0)">
      <g id="Group_138" data-name="Group 138" clip-path="url(#clip-path-4)">
        <g id="Group_131" data-name="Group 131" transform="translate(8.165 14.805)" opacity="0.19">
          <g id="Group_130" data-name="Group 130">
            <g id="Group_129" data-name="Group 129" clip-path="url(#clip-path-17)">
              <path id="Path_395" data-name="Path 395" d="M13.3,25.594c1.463,1.937,4.65-.35,4.945-1.025s-1.37-.748-2.643-.883-3.256.645-2.3,1.908" transform="translate(-13.054 -23.671)" fill="#fff"/>
            </g>
          </g>
        </g>
        <g id="Group_134" data-name="Group 134" transform="translate(8.592 15.127)" opacity="0.19">
          <g id="Group_133" data-name="Group 133">
            <g id="Group_132" data-name="Group 132" clip-path="url(#clip-path-18)">
              <path id="Path_396" data-name="Path 396" d="M13.864,25.3c1.312,1.026,4.1-.181,3.606-.571a3.085,3.085,0,0,0-2.514-.478c-.356.058-1.622.634-1.092,1.049" transform="translate(-13.736 -24.185)" fill="#fff"/>
            </g>
          </g>
        </g>
        <g id="Group_137" data-name="Group 137" transform="translate(9.346 15.364)" opacity="0.19">
          <g id="Group_136" data-name="Group 136">
            <g id="Group_135" data-name="Group 135" clip-path="url(#clip-path-19)">
              <path id="Path_397" data-name="Path 397" d="M15.159,24.859c1.47.013,2.649.04,1.935-.156a4.459,4.459,0,0,0-1.719-.1c-.344.042-.66.248-.216.251" transform="translate(-14.942 -24.565)" fill="#fff"/>
            </g>
          </g>
        </g>
        <path id="Path_398" data-name="Path 398" d="M4.841,7.017A14.814,14.814,0,0,1,7.785,5.671,19.872,19.872,0,0,1,10.933,4.9a22.287,22.287,0,0,1,3.232-.261,17.664,17.664,0,0,1,3.229.247,20.422,20.422,0,0,0-3.229-.2,22.308,22.308,0,0,0-3.22.286A19.724,19.724,0,0,0,7.8,5.719a16.611,16.611,0,0,0-2.96,1.3" transform="translate(-1.813 -1.736)" fill="#ffc9bd"/>
        <path id="Path_399" data-name="Path 399" d="M31.233,2.617a9.859,9.859,0,0,1,1.44-.749,15.57,15.57,0,0,1,1.529-.55A17.575,17.575,0,0,1,37.389.7c-.536.075-1.068.175-1.6.284s-1.051.248-1.569.4a15.62,15.62,0,0,0-1.532.524,14.152,14.152,0,0,0-1.459.7" transform="translate(-11.698 -0.263)" fill="#ffc9bd"/>
        <path id="Path_400" data-name="Path 400" d="M10.04,24.877a12.118,12.118,0,0,1,.8-2.138,6.416,6.416,0,0,1,1.351-1.848A8.258,8.258,0,0,1,14.083,19.6a17.83,17.83,0,0,1,2.1-.883c-.695.308-1.385.624-2.05.985A8.65,8.65,0,0,0,12.292,21a6.608,6.608,0,0,0-1.352,1.791,16.09,16.09,0,0,0-.9,2.085" transform="translate(-3.76 -7.012)" fill="#ff6e5a"/>
        <path id="Path_401" data-name="Path 401" d="M29.373,9.653c1.2-.858,2.457-1.631,3.725-2.382S35.655,5.806,36.95,5.1c.649-.347,1.305-.688,1.966-1.013a11.645,11.645,0,0,1,2.061-.819,16.331,16.331,0,0,1,4.38-.56,17.839,17.839,0,0,0-4.348.67,12.545,12.545,0,0,0-2.032.831c-.659.33-1.308.672-1.956,1.023-1.3.692-2.585,1.41-3.866,2.137S30.6,8.842,29.373,9.653" transform="translate(-11.001 -1.015)" fill="#ff6e5a"/>
        <path id="Path_402" data-name="Path 402" d="M13.6,23.837a4,4,0,0,1,.894-.387,4.463,4.463,0,0,1,.966-.151,5.47,5.47,0,0,1,.976.052c.323.043.638.121.956.183-.323-.034-.642-.093-.963-.125a6.072,6.072,0,0,0-.965-.034,4.811,4.811,0,0,0-.954.131,5.07,5.07,0,0,0-.909.331" transform="translate(-5.095 -8.725)" fill="#ffc9bd"/>
        <path id="Path_403" data-name="Path 403" d="M34.745,28.188a5.6,5.6,0,0,0,.5.62,6.492,6.492,0,0,0,.574.547c.2.174.411.334.626.489s.436.3.665.438a6.116,6.116,0,0,1-1.34-.87,5.577,5.577,0,0,1-.569-.565,3.915,3.915,0,0,1-.454-.659" transform="translate(-13.013 -10.558)" fill="#ffc9bd"/>
        <path id="Path_404" data-name="Path 404" d="M33.619,23.308a1.618,1.618,0,0,1,.278.593,4.831,4.831,0,0,1,.128.644,7.207,7.207,0,0,1,.048,1.308c-.034-.435-.063-.869-.122-1.3a6.1,6.1,0,0,0-.109-.64,1.97,1.97,0,0,0-.222-.607" transform="translate(-12.592 -8.73)" fill="#ffc9bd"/>
        <path id="Path_405" data-name="Path 405" d="M34.487,30.563c.021.559.025,1.116.089,1.669a10.067,10.067,0,0,0,.315,1.638,6.369,6.369,0,0,1-.389-1.63,9.689,9.689,0,0,1-.014-1.677" transform="translate(-12.906 -11.447)" fill="#ffc9bd"/>
        <path id="Path_406" data-name="Path 406" d="M24.692,22.763a2.224,2.224,0,0,1,1.037-.229,1.765,1.765,0,0,1,.527.106,1.626,1.626,0,0,1,.462.266,2.108,2.108,0,0,0-.993-.3,3.154,3.154,0,0,0-1.034.154" transform="translate(-9.248 -8.44)" fill="#ffc9bd"/>
        <path id="Path_407" data-name="Path 407" d="M32.568,19.432a7.773,7.773,0,0,1,.521-1.053,5.588,5.588,0,0,1,.7-.941,6.849,6.849,0,0,0-.677.956,10.386,10.386,0,0,0-.547,1.038" transform="translate(-12.198 -6.531)" fill="#ffc9bd"/>
        <path id="Path_408" data-name="Path 408" d="M36.045,14.422c.378-.363.8-.681,1.2-1.016a6.976,6.976,0,0,0,1.118-1.1,6.214,6.214,0,0,1-1.1,1.12c-.409.328-.823.649-1.218.993" transform="translate(-13.5 -4.61)" fill="#ffc9bd"/>
      </g>
    </g>
  </g>
</svg>
