<svg id="svg" version="1.1" xmlns="http://www.w3.org/2000/svg" xmlns:xlink="http://www.w3.org/1999/xlink" width="400" height="133.6649051911719" viewBox="0, 0, 400,133.6649051911719"><g id="svgg"><path id="path0" d="M130.131 34.258 C 122.352 35.470,118.185 43.606,120.685 52.701 C 122.572 59.569,129.933 62.659,137.974 59.957 L 139.583 59.417 139.629 56.458 C 139.654 54.831,139.625 53.500,139.564 53.500 C 139.503 53.500,138.545 53.808,137.435 54.184 C 130.702 56.468,127.460 54.356,127.429 47.667 C 127.397 40.687,130.648 38.354,136.982 40.810 L 138.610 41.442 139.665 38.715 C 140.885 35.565,140.958 35.845,138.720 35.086 C 135.859 34.114,132.892 33.829,130.131 34.258 M184.583 34.185 C 177.052 35.271,172.778 42.364,174.409 51.068 C 175.968 59.390,183.464 62.983,192.625 59.800 L 193.667 59.438 193.667 56.450 C 193.667 53.681,193.645 53.468,193.375 53.550 C 193.215 53.599,192.428 53.868,191.628 54.148 C 184.942 56.483,181.446 54.231,181.435 47.583 C 181.425 41.003,184.585 38.540,190.404 40.593 C 191.328 40.919,192.212 41.227,192.369 41.278 C 192.576 41.344,192.725 41.214,192.908 40.810 C 193.331 39.875,194.842 35.952,194.794 35.913 C 193.370 34.723,187.609 33.748,184.583 34.185 M144.667 47.504 L 144.667 60.507 147.792 60.462 L 150.917 60.417 150.917 54.083 C 150.917 50.600,150.857 46.513,150.785 45.002 C 150.706 43.361,150.714 42.320,150.804 42.418 C 150.887 42.509,151.876 44.383,153.002 46.583 C 154.127 48.783,155.102 50.658,155.166 50.750 C 155.231 50.842,156.245 52.789,157.419 55.076 C 158.593 57.364,159.706 59.521,159.891 59.868 L 160.229 60.500 164.864 60.500 L 169.500 60.500 169.500 47.500 L 169.500 34.500 166.312 34.500 L 163.123 34.500 163.197 43.412 L 163.270 52.325 162.502 50.871 C 161.078 48.174,159.019 44.250,154.854 36.294 L 153.917 34.505 149.292 34.502 L 144.667 34.500 144.667 47.504 " stroke="none" fill="#fbfbfb" fill-rule="evenodd"></path><path id="path1" d="M96.333 70.083 L 96.333 128.667 98.250 128.667 L 100.167 128.667 100.167 70.083 L 100.167 11.500 98.250 11.500 L 96.333 11.500 96.333 70.083 M373.083 34.417 C 373.083 34.992,373.093 35.000,373.792 35.000 L 374.500 35.000 374.500 37.250 L 374.500 39.500 375.250 39.500 L 376.000 39.500 376.000 37.250 L 376.000 35.000 376.750 35.000 C 377.496 35.000,377.500 34.997,377.500 34.417 L 377.500 33.833 375.292 33.833 L 373.083 33.833 373.083 34.417 M378.000 36.667 L 378.000 39.500 378.750 39.500 L 379.500 39.500 379.506 38.125 C 379.512 36.823,379.973 36.646,379.994 37.938 C 380.010 38.869,380.472 39.500,381.140 39.500 L 381.775 39.500 382.262 38.042 L 382.750 36.583 382.798 38.042 L 382.846 39.500 383.590 39.500 L 384.333 39.500 384.333 36.667 L 384.333 33.833 383.333 33.833 C 382.450 33.833,382.333 33.872,382.333 34.161 C 382.333 34.341,382.231 34.735,382.105 35.036 C 381.791 35.790,381.483 36.677,381.380 37.125 C 381.193 37.941,381.069 37.678,380.154 34.542 L 379.947 33.833 378.974 33.833 L 378.000 33.833 378.000 36.667 M235.096 35.875 C 235.064 35.990,234.924 36.421,234.785 36.833 C 234.647 37.246,234.067 39.046,233.497 40.833 C 232.927 42.621,232.364 44.346,232.247 44.667 C 232.130 44.987,231.830 45.925,231.581 46.750 C 231.332 47.575,231.035 48.512,230.921 48.833 C 230.408 50.279,230.296 50.614,230.167 51.083 C 230.091 51.358,229.949 51.808,229.850 52.083 C 229.752 52.358,229.343 53.596,228.941 54.833 C 228.539 56.071,227.863 58.145,227.438 59.442 C 227.014 60.739,226.667 61.882,226.667 61.983 C 226.667 62.112,227.861 62.167,230.645 62.167 L 234.623 62.167 234.829 61.375 C 235.068 60.453,235.344 59.466,235.736 58.125 L 236.017 57.167 240.089 57.167 L 244.160 57.167 244.264 57.625 C 244.429 58.359,244.833 59.852,245.093 60.689 C 245.225 61.114,245.333 61.620,245.333 61.814 C 245.333 62.163,245.371 62.167,249.333 62.167 C 252.710 62.167,253.333 62.129,253.333 61.926 C 253.333 61.725,251.076 54.718,250.485 53.083 C 250.385 52.808,250.242 52.358,250.167 52.083 C 250.091 51.808,249.937 51.321,249.824 51.000 C 248.956 48.530,248.153 46.103,246.761 41.750 C 246.233 40.100,245.707 38.487,245.591 38.167 C 245.084 36.761,244.961 36.394,244.880 36.042 L 244.794 35.667 239.975 35.667 C 236.263 35.667,235.142 35.715,235.096 35.875 M332.156 36.375 C 332.051 36.765,331.871 37.346,331.756 37.667 C 331.286 38.979,331.131 39.441,331.000 39.917 C 330.924 40.192,330.782 40.642,330.684 40.917 C 330.455 41.557,329.328 45.025,328.004 49.167 C 327.432 50.954,326.860 52.663,326.732 52.964 C 326.604 53.265,326.500 53.619,326.500 53.750 C 326.500 53.881,326.392 54.235,326.260 54.536 C 326.127 54.837,325.821 55.758,325.579 56.583 C 325.337 57.408,325.043 58.346,324.926 58.667 C 324.477 59.901,324.300 60.434,324.178 60.917 C 324.108 61.192,323.997 61.587,323.930 61.795 L 323.809 62.173 327.861 62.128 C 331.768 62.085,331.914 62.071,331.960 61.750 C 331.987 61.567,332.118 61.042,332.251 60.583 C 332.794 58.713,332.975 58.061,333.072 57.625 L 333.173 57.167 337.235 57.167 C 340.331 57.167,341.317 57.216,341.378 57.375 C 341.422 57.490,341.622 58.258,341.823 59.083 C 342.024 59.908,342.302 60.940,342.441 61.375 L 342.693 62.167 346.597 62.167 C 350.117 62.167,350.500 62.140,350.500 61.891 C 350.500 61.739,350.162 60.596,349.749 59.349 C 349.336 58.103,348.249 54.796,347.334 52.000 C 346.419 49.204,345.588 46.692,345.487 46.417 C 345.387 46.142,345.242 45.692,345.167 45.417 C 345.091 45.142,344.937 44.654,344.824 44.333 C 344.712 44.012,344.528 43.487,344.417 43.167 C 344.305 42.846,344.122 42.321,344.009 42.000 C 343.896 41.679,343.742 41.192,343.667 40.917 C 343.538 40.449,343.437 40.146,342.913 38.667 C 342.799 38.346,342.539 37.540,342.334 36.875 L 341.963 35.667 337.155 35.667 L 332.347 35.667 332.156 36.375 M206.500 49.000 L 206.500 62.167 210.083 62.167 L 213.667 62.167 213.667 57.833 L 213.667 53.500 215.375 53.497 C 218.978 53.490,222.091 52.431,223.295 50.803 C 223.412 50.645,223.615 50.409,223.747 50.277 C 225.161 48.863,225.973 44.345,225.275 41.775 C 224.954 40.596,224.485 39.500,224.301 39.500 C 224.227 39.500,224.167 39.416,224.167 39.314 C 224.167 38.961,222.582 37.527,221.706 37.087 C 219.645 36.053,218.055 35.861,211.375 35.845 L 206.500 35.833 206.500 49.000 M254.167 38.833 L 254.167 41.833 257.333 41.833 L 260.500 41.833 260.500 52.000 L 260.500 62.167 264.083 62.167 L 267.667 62.167 267.667 52.000 L 267.667 41.833 270.833 41.833 L 274.000 41.833 274.000 38.833 L 274.000 35.833 264.083 35.833 L 254.167 35.833 254.167 38.833 M277.500 49.000 L 277.500 62.167 281.167 62.167 L 284.833 62.167 284.833 56.833 L 284.833 51.500 288.833 51.500 L 292.833 51.500 292.833 56.833 L 292.833 62.167 296.500 62.167 L 300.167 62.167 300.167 49.000 L 300.167 35.833 296.500 35.833 L 292.833 35.833 292.833 40.667 L 292.833 45.500 288.833 45.500 L 284.833 45.500 284.833 40.667 L 284.833 35.833 281.167 35.833 L 277.500 35.833 277.500 49.000 M305.500 49.000 L 305.500 62.167 314.083 62.167 L 322.667 62.167 322.667 59.167 L 322.667 56.167 317.750 56.167 L 312.833 56.167 312.833 46.000 L 312.833 35.833 309.167 35.833 L 305.500 35.833 305.500 49.000 M353.167 48.977 L 353.167 62.167 358.625 62.161 C 365.409 62.155,367.385 61.925,369.417 60.908 C 374.795 58.214,374.976 50.645,369.712 48.508 C 369.275 48.330,369.049 48.181,369.212 48.176 C 369.786 48.158,371.004 47.270,371.882 46.230 C 373.655 44.126,373.180 39.860,370.954 37.901 C 369.101 36.270,367.446 35.974,359.625 35.872 L 353.167 35.788 353.167 48.977 M337.574 42.500 C 337.703 43.004,337.932 43.904,338.084 44.500 C 338.236 45.096,338.462 45.958,338.587 46.417 C 338.712 46.875,338.939 47.737,339.093 48.333 C 339.246 48.929,339.475 49.749,339.602 50.155 C 339.729 50.561,339.833 50.954,339.833 51.030 C 339.833 51.105,338.708 51.167,337.333 51.167 C 334.471 51.167,334.604 51.262,335.083 49.556 C 335.221 49.067,335.436 48.273,335.561 47.792 C 335.687 47.310,335.918 46.429,336.074 45.833 C 336.513 44.164,336.791 43.010,337.019 41.917 C 337.134 41.367,337.253 41.067,337.284 41.250 C 337.315 41.433,337.446 41.996,337.574 42.500 M240.487 42.917 C 240.682 43.742,240.960 44.867,241.106 45.417 C 241.251 45.967,241.478 46.829,241.611 47.333 C 241.744 47.837,241.953 48.625,242.077 49.083 C 242.201 49.542,242.350 50.198,242.408 50.542 L 242.515 51.167 240.008 51.167 C 238.628 51.167,237.500 51.105,237.500 51.030 C 237.500 50.954,237.604 50.561,237.731 50.155 C 237.858 49.749,238.077 48.967,238.218 48.417 C 238.359 47.867,238.590 46.967,238.731 46.417 C 238.872 45.867,239.074 45.004,239.181 44.500 C 239.288 43.996,239.478 43.251,239.604 42.845 C 239.730 42.439,239.833 41.881,239.833 41.604 C 239.833 40.762,240.109 41.316,240.487 42.917 M364.250 41.767 C 366.910 43.029,365.306 45.833,361.925 45.833 L 360.333 45.833 360.333 43.561 L 360.333 41.289 361.958 41.370 C 363.069 41.425,363.794 41.551,364.250 41.767 M217.017 42.210 C 219.530 43.879,218.247 47.234,215.011 47.456 L 213.667 47.548 213.667 44.690 L 213.667 41.833 215.059 41.833 C 216.225 41.833,216.542 41.894,217.017 42.210 M364.528 51.642 C 365.822 52.277,366.257 53.702,365.578 55.083 C 365.084 56.088,364.321 56.394,362.125 56.469 L 360.333 56.529 360.333 53.833 L 360.333 51.136 362.042 51.198 C 363.398 51.248,363.910 51.339,364.528 51.642 M65.385 53.875 C 65.075 54.354,64.838 54.771,64.684 55.109 C 64.453 55.617,64.262 55.691,63.900 55.417 C 63.230 54.910,61.667 56.246,61.667 57.325 C 61.667 57.399,61.554 57.553,61.417 57.667 C 61.041 57.978,61.110 58.158,61.708 58.430 C 62.006 58.566,62.475 58.820,62.750 58.994 C 63.542 59.494,64.863 60.193,64.911 60.136 C 65.151 59.848,66.500 57.376,66.500 57.224 C 66.500 57.114,66.270 56.844,65.989 56.624 L 65.478 56.224 66.027 55.217 C 66.499 54.351,66.545 54.171,66.351 53.938 C 66.084 53.616,65.574 53.583,65.385 53.875 M60.610 58.958 C 60.502 59.286,59.964 60.233,59.286 61.288 C 59.037 61.676,58.833 62.026,58.833 62.066 C 58.833 62.106,58.508 62.689,58.111 63.361 C 56.128 66.719,56.138 66.387,57.988 67.466 C 59.725 68.479,60.614 68.478,60.661 67.464 C 60.664 67.399,61.012 66.776,61.435 66.080 C 62.196 64.826,62.206 64.817,62.560 65.111 C 66.804 68.641,66.831 74.483,62.620 77.957 C 62.371 78.163,62.167 78.257,62.167 78.166 C 62.167 78.060,60.431 78.000,57.357 78.000 L 52.547 78.000 52.028 77.458 C 51.742 77.160,51.349 76.729,51.155 76.500 C 50.766 76.043,50.000 74.611,50.000 74.341 C 50.000 74.231,51.707 74.156,54.875 74.128 L 59.750 74.083 59.806 73.686 C 59.900 73.025,59.676 73.005,52.222 73.003 C 44.538 73.000,44.500 73.003,44.500 73.583 C 44.500 74.091,44.761 74.167,46.514 74.167 C 47.912 74.167,48.000 74.187,48.000 74.516 C 48.000 74.824,48.219 75.347,48.691 76.167 C 48.771 76.304,48.885 76.529,48.945 76.667 C 49.456 77.828,51.734 80.017,52.159 79.755 C 52.277 79.682,52.275 79.798,52.154 80.115 C 52.056 80.373,51.912 80.883,51.834 81.250 C 51.756 81.617,51.640 82.085,51.576 82.292 L 51.461 82.667 57.412 82.667 L 63.363 82.667 63.243 81.961 C 63.178 81.572,63.027 80.979,62.908 80.642 C 62.702 80.057,62.709 80.025,63.082 79.932 C 63.297 79.878,63.897 79.446,64.417 78.971 C 68.721 75.037,68.748 68.560,64.479 64.279 L 63.178 62.975 63.564 62.362 C 63.776 62.026,64.072 61.514,64.221 61.225 L 64.491 60.700 63.484 60.100 C 62.929 59.770,62.442 59.500,62.401 59.500 C 62.360 59.500,62.030 59.313,61.667 59.083 C 60.884 58.589,60.737 58.572,60.610 58.958 M55.778 67.278 C 55.532 67.524,55.692 67.995,56.125 68.298 C 58.159 69.724,59.760 70.082,59.429 69.039 C 59.220 68.380,56.154 66.901,55.778 67.278 M236.721 88.417 C 236.722 89.058,236.752 89.300,236.788 88.955 C 236.824 88.609,236.824 88.084,236.787 87.788 C 236.750 87.492,236.721 87.775,236.721 88.417 M269.909 93.833 C 269.909 97.454,269.931 98.935,269.958 97.125 C 269.985 95.315,269.985 92.352,269.958 90.542 C 269.931 88.731,269.909 90.212,269.909 93.833 M362.571 90.833 C 362.571 92.804,362.595 93.610,362.624 92.625 C 362.654 91.640,362.654 90.027,362.624 89.042 C 362.595 88.056,362.571 88.862,362.571 90.833 M212.057 93.750 C 212.058 94.483,212.087 94.763,212.122 94.371 C 212.157 93.979,212.157 93.379,212.121 93.037 C 212.085 92.696,212.057 93.017,212.057 93.750 M272.704 97.387 L 272.667 100.691 271.265 100.637 C 270.495 100.608,269.899 100.640,269.942 100.708 C 270.083 100.936,272.669 100.854,272.759 100.620 C 272.804 100.502,272.819 98.984,272.792 97.245 L 272.742 94.083 272.704 97.387 M295.547 94.956 C 295.985 94.990,296.660 94.990,297.047 94.955 C 297.434 94.920,297.075 94.892,296.250 94.892 C 295.425 94.893,295.109 94.922,295.547 94.956 M295.034 97.623 C 295.649 97.655,296.699 97.656,297.368 97.624 C 298.036 97.592,297.533 97.566,296.250 97.566 C 294.967 97.565,294.420 97.591,295.034 97.623 M337.833 100.483 C 337.833 100.636,337.389 100.675,336.099 100.636 C 335.145 100.607,334.399 100.640,334.442 100.708 C 334.565 100.907,337.798 100.858,337.924 100.656 C 337.984 100.558,337.988 100.433,337.933 100.378 C 337.878 100.323,337.833 100.370,337.833 100.483 M148.000 100.667 L 146.417 100.770 147.948 100.801 C 148.826 100.820,149.524 100.762,149.583 100.667 C 149.640 100.575,149.663 100.514,149.635 100.532 C 149.607 100.549,148.871 100.610,148.000 100.667 M204.645 100.712 C 204.715 100.782,206.493 100.819,208.595 100.795 L 212.417 100.749 208.466 100.666 C 206.294 100.621,204.574 100.641,204.645 100.712 M277.000 100.667 L 275.583 100.771 276.948 100.802 C 277.714 100.820,278.359 100.760,278.417 100.667 C 278.473 100.575,278.496 100.514,278.468 100.531 C 278.440 100.548,277.779 100.609,277.000 100.667 M281.482 100.716 C 281.555 100.789,282.208 100.826,282.932 100.798 L 284.250 100.747 282.799 100.665 C 282.001 100.620,281.408 100.643,281.482 100.716 M289.814 100.715 C 289.887 100.787,290.652 100.824,291.515 100.797 L 293.083 100.748 291.383 100.666 C 290.447 100.620,289.741 100.643,289.814 100.715 M134.218 100.791 C 135.300 100.820,137.025 100.820,138.051 100.791 C 139.077 100.762,138.192 100.738,136.083 100.738 C 133.975 100.738,133.135 100.762,134.218 100.791 M154.797 100.790 C 155.282 100.824,156.032 100.823,156.464 100.789 C 156.896 100.755,156.500 100.727,155.583 100.728 C 154.667 100.728,154.313 100.756,154.797 100.790 M166.292 100.790 C 166.773 100.823,167.560 100.823,168.042 100.790 C 168.523 100.756,168.129 100.728,167.167 100.728 C 166.204 100.728,165.810 100.756,166.292 100.790 M179.547 100.789 C 179.985 100.824,180.660 100.823,181.047 100.788 C 181.434 100.754,181.075 100.725,180.250 100.726 C 179.425 100.726,179.109 100.755,179.547 100.789 M230.880 100.789 C 231.318 100.824,231.993 100.823,232.380 100.788 C 232.767 100.754,232.408 100.725,231.583 100.726 C 230.758 100.726,230.442 100.755,230.880 100.789 M300.297 100.790 C 300.782 100.824,301.532 100.823,301.964 100.789 C 302.396 100.755,302.000 100.727,301.083 100.728 C 300.167 100.728,299.813 100.756,300.297 100.790 M308.792 100.789 C 309.181 100.824,309.819 100.824,310.208 100.789 C 310.598 100.754,310.279 100.725,309.500 100.725 C 308.721 100.725,308.402 100.754,308.792 100.789 M317.208 100.790 C 317.735 100.823,318.598 100.823,319.125 100.790 C 319.652 100.757,319.221 100.730,318.167 100.730 C 317.112 100.730,316.681 100.757,317.208 100.790 M327.875 100.789 C 328.310 100.824,329.023 100.824,329.458 100.789 C 329.894 100.755,329.537 100.727,328.667 100.727 C 327.796 100.727,327.440 100.755,327.875 100.789 M344.042 100.789 C 344.477 100.824,345.190 100.824,345.625 100.789 C 346.060 100.755,345.704 100.727,344.833 100.727 C 343.962 100.727,343.606 100.755,344.042 100.789 M354.125 100.789 C 354.515 100.824,355.152 100.824,355.542 100.789 C 355.931 100.754,355.613 100.725,354.833 100.725 C 354.054 100.725,353.735 100.754,354.125 100.789 M362.542 100.790 C 363.069 100.823,363.931 100.823,364.458 100.790 C 364.985 100.757,364.554 100.730,363.500 100.730 C 362.446 100.730,362.015 100.757,362.542 100.790 M373.800 100.791 C 374.560 100.822,375.760 100.822,376.466 100.790 C 377.172 100.759,376.550 100.734,375.083 100.734 C 373.617 100.734,373.039 100.760,373.800 100.791 M321.828 107.875 L 321.633 108.750 320.647 108.693 C 318.904 108.593,317.708 110.807,318.588 112.508 C 318.866 113.047,320.517 113.250,320.967 112.800 C 321.122 112.644,321.167 112.644,321.167 112.800 C 321.167 112.910,321.373 113.000,321.626 113.000 C 322.077 113.000,322.090 112.971,322.388 111.292 C 322.554 110.352,322.798 109.068,322.929 108.438 C 323.240 106.940,323.254 107.000,322.595 107.000 C 322.042 107.000,322.018 107.028,321.828 107.875 M326.154 107.208 C 326.147 107.323,326.116 107.567,326.084 107.750 C 325.762 109.642,325.591 110.594,325.396 111.583 C 325.102 113.082,325.086 113.000,325.667 113.000 C 325.944 113.000,326.167 112.911,326.167 112.800 C 326.167 112.644,326.211 112.644,326.367 112.800 C 326.684 113.117,328.293 113.053,328.650 112.708 C 330.311 111.106,329.872 108.588,327.950 108.695 C 326.867 108.756,326.909 108.833,327.260 107.436 C 327.363 107.026,327.333 107.000,326.768 107.000 C 326.405 107.000,326.162 107.083,326.154 107.208 M291.050 108.292 C 290.146 112.967,290.144 113.000,290.815 113.000 C 291.264 113.000,291.314 112.934,291.530 112.042 C 291.754 111.121,291.786 111.081,292.340 111.036 C 293.688 110.924,294.550 110.292,294.736 109.278 C 295.013 107.769,294.513 107.333,292.501 107.333 L 291.235 107.333 291.050 108.292 M293.340 108.472 C 294.066 109.060,293.380 110.000,292.224 110.000 C 291.902 110.000,291.823 109.935,291.900 109.735 C 291.956 109.589,292.045 109.270,292.098 109.026 C 292.269 108.243,292.317 108.167,292.643 108.167 C 292.819 108.167,293.133 108.304,293.340 108.472 M295.866 109.185 C 294.971 110.061,294.738 111.917,295.428 112.680 C 296.039 113.355,298.667 112.962,298.667 112.196 C 298.667 112.103,298.749 112.000,298.849 111.967 C 299.388 111.787,299.358 109.525,298.811 108.977 C 298.251 108.417,296.527 108.539,295.866 109.185 M299.896 109.042 C 299.952 109.248,300.041 110.054,300.093 110.833 C 300.239 113.016,300.233 113.000,301.003 113.000 C 301.418 113.000,301.670 112.922,301.676 112.792 C 301.694 112.410,302.766 110.322,302.884 110.440 C 302.948 110.503,303.000 111.106,303.000 111.778 L 303.000 113.000 303.750 113.000 C 304.162 113.000,304.500 112.923,304.500 112.830 C 304.500 112.685,305.216 111.049,305.675 110.143 C 305.752 109.992,305.927 109.598,306.065 109.268 L 306.316 108.667 305.658 108.667 C 305.246 108.667,304.998 108.744,304.995 108.875 C 304.992 108.990,304.778 109.533,304.520 110.083 C 304.002 111.185,303.950 111.148,303.746 109.542 C 303.550 107.991,302.691 108.215,301.832 110.042 L 301.186 111.417 301.176 110.305 C 301.164 108.823,301.087 108.667,300.379 108.667 C 299.854 108.667,299.805 108.705,299.896 109.042 M307.104 109.014 C 306.159 109.756,305.723 111.521,306.282 112.338 C 307.059 113.474,309.667 113.272,309.667 112.075 C 309.667 112.037,309.214 112.052,308.661 112.110 C 307.795 112.201,307.623 112.172,307.416 111.899 C 306.936 111.264,307.090 111.167,308.576 111.167 L 309.985 111.167 310.092 110.598 C 310.406 108.924,308.502 107.914,307.104 109.014 M311.037 109.625 C 310.368 113.280,310.365 113.000,311.073 113.000 C 311.631 113.000,311.649 112.979,311.751 112.208 C 312.011 110.230,312.342 109.667,313.243 109.667 C 313.763 109.667,313.987 109.408,313.998 108.792 C 314.002 108.552,312.691 108.666,312.429 108.929 C 312.190 109.167,312.167 109.167,312.167 108.929 C 312.167 108.079,311.212 108.667,311.037 109.625 M314.937 109.014 C 313.993 109.756,313.557 111.521,314.115 112.338 C 314.893 113.474,317.500 113.272,317.500 112.075 C 317.500 112.037,317.048 112.052,316.494 112.110 C 315.628 112.201,315.456 112.172,315.250 111.899 C 314.769 111.264,314.924 111.167,316.409 111.167 L 317.818 111.167 317.925 110.598 C 318.239 108.924,316.335 107.914,314.937 109.014 M330.167 108.782 C 330.167 109.071,330.675 111.335,330.833 111.750 C 331.241 112.822,330.703 114.000,329.806 114.000 C 329.501 114.000,329.344 114.107,329.277 114.362 C 328.998 115.433,330.761 115.155,331.613 113.995 C 331.954 113.529,331.990 113.466,333.035 111.499 C 333.450 110.720,333.948 109.820,334.144 109.499 C 334.616 108.725,334.599 108.667,333.908 108.667 C 333.404 108.667,333.279 108.746,333.063 109.208 C 332.924 109.506,332.596 110.147,332.335 110.633 L 331.860 111.516 331.686 110.633 C 331.591 110.147,331.491 109.525,331.464 109.250 C 331.419 108.775,330.166 108.323,330.167 108.782 M297.739 109.663 C 298.531 109.964,298.115 111.851,297.206 112.079 C 295.990 112.385,295.776 109.937,296.991 109.609 C 297.133 109.570,297.264 109.530,297.281 109.519 C 297.298 109.509,297.504 109.573,297.739 109.663 M308.736 109.601 C 309.359 109.840,309.031 110.333,308.250 110.333 C 307.457 110.333,307.334 110.190,307.762 109.762 C 308.041 109.483,308.311 109.438,308.736 109.601 M316.570 109.601 C 317.192 109.840,316.864 110.333,316.083 110.333 C 315.290 110.333,315.167 110.190,315.595 109.762 C 315.875 109.483,316.145 109.438,316.570 109.601 M321.400 110.077 C 321.496 110.457,321.063 111.998,320.859 112.002 C 320.799 112.004,320.592 112.047,320.400 112.099 C 319.267 112.403,319.272 110.092,320.405 109.673 C 320.899 109.490,321.293 109.650,321.400 110.077 M328.178 109.673 C 329.002 110.114,328.212 112.157,327.214 112.164 C 326.056 112.172,326.592 109.754,327.803 109.511 C 327.832 109.505,328.000 109.578,328.178 109.673 M290.333 116.250 C 290.333 116.472,295.963 116.500,340.000 116.500 C 384.037 116.500,389.667 116.472,389.667 116.250 C 389.667 116.028,384.037 116.000,340.000 116.000 C 295.963 116.000,290.333 116.028,290.333 116.250 " stroke="none" fill="#2c2c2c" fill-rule="evenodd"></path><path id="path2" d="M54.583 17.342 C 53.942 17.414,53.004 17.513,52.500 17.561 C 51.402 17.666,48.680 18.122,47.750 18.357 C 43.859 19.339,42.388 19.774,40.500 20.504 C 39.996 20.699,39.391 20.919,39.155 20.992 C 38.920 21.066,38.582 21.208,38.405 21.307 C 38.228 21.407,37.708 21.649,37.250 21.844 C 34.349 23.084,28.252 26.619,28.028 27.192 C 27.997 27.270,27.899 27.333,27.810 27.333 C 27.268 27.333,21.290 32.576,19.604 34.528 C 19.341 34.834,18.699 35.571,18.177 36.167 C 17.656 36.762,16.863 37.737,16.414 38.333 C 15.966 38.929,15.558 39.454,15.508 39.500 C 15.274 39.714,14.667 40.672,14.667 40.827 C 14.667 40.922,14.592 41.000,14.500 41.000 C 14.408 41.000,14.333 41.112,14.333 41.250 C 14.333 41.387,14.277 41.500,14.208 41.500 C 14.140 41.500,13.864 41.894,13.597 42.375 C 13.329 42.856,13.066 43.288,13.013 43.333 C 12.707 43.598,9.631 49.848,9.324 50.828 C 9.251 51.060,9.031 51.663,8.835 52.167 C 8.426 53.218,8.037 54.360,7.841 55.083 C 7.767 55.358,7.551 56.148,7.362 56.838 C 6.697 59.263,6.067 62.717,5.871 65.000 C 5.591 68.275,5.758 75.586,6.165 77.861 C 6.253 78.350,6.366 79.012,6.418 79.333 C 6.619 80.583,7.030 82.444,7.355 83.571 C 7.542 84.219,7.756 84.975,7.830 85.250 C 8.019 85.951,8.827 88.317,9.082 88.917 C 9.199 89.192,9.565 90.066,9.896 90.860 C 10.737 92.876,12.463 96.208,13.430 97.679 C 13.877 98.360,14.244 98.957,14.246 99.007 C 14.257 99.270,17.674 103.688,18.853 104.963 C 19.301 105.447,19.667 105.875,19.667 105.914 C 19.667 106.138,23.695 109.903,24.792 110.705 C 25.181 110.990,25.500 111.285,25.500 111.362 C 25.500 111.438,25.613 111.500,25.750 111.500 C 25.887 111.500,26.000 111.556,26.000 111.625 C 26.001 111.694,26.336 111.975,26.747 112.250 C 27.157 112.525,27.494 112.806,27.496 112.875 C 27.498 112.944,27.606 113.000,27.736 113.000 C 27.866 113.000,27.997 113.057,28.028 113.126 C 28.085 113.257,30.619 115.000,30.752 115.000 C 30.794 115.000,31.298 115.287,31.872 115.637 C 32.796 116.201,36.402 118.009,38.000 118.710 C 39.544 119.387,42.913 120.582,44.000 120.838 C 44.321 120.913,45.146 121.122,45.833 121.302 C 50.118 122.424,53.426 122.807,58.917 122.816 C 64.096 122.824,66.800 122.544,71.000 121.563 C 72.695 121.168,76.952 119.872,77.750 119.509 C 77.933 119.425,78.513 119.203,79.038 119.016 C 79.563 118.828,80.126 118.600,80.288 118.510 C 80.450 118.420,81.258 118.033,82.083 117.650 C 84.894 116.345,89.167 113.806,89.166 113.442 C 89.166 113.250,85.696 108.025,85.332 107.667 C 85.157 107.495,84.246 106.072,84.130 105.792 C 84.065 105.631,83.906 105.500,83.778 105.500 C 83.650 105.500,83.365 105.631,83.146 105.792 C 82.056 106.587,78.504 108.527,76.913 109.195 C 74.935 110.026,74.148 110.334,73.167 110.661 C 71.826 111.108,68.368 112.012,67.917 112.034 C 67.733 112.044,67.133 112.152,66.583 112.276 C 63.933 112.872,55.691 112.909,53.083 112.336 C 52.717 112.256,52.079 112.142,51.667 112.085 C 50.183 111.877,46.532 110.943,45.167 110.422 C 42.796 109.516,42.635 109.448,40.464 108.428 C 38.121 107.326,33.538 104.502,32.517 103.531 C 32.354 103.377,31.703 102.824,31.069 102.304 C 26.372 98.449,21.077 91.120,19.109 85.750 C 18.975 85.383,18.675 84.558,18.443 83.917 C 17.727 81.937,16.774 78.208,16.598 76.692 C 16.541 76.202,16.413 75.452,16.314 75.025 C 15.678 72.297,16.190 63.980,17.258 59.667 C 19.345 51.245,24.402 42.865,30.417 37.862 C 31.150 37.252,31.862 36.646,31.999 36.515 C 34.068 34.533,39.568 31.357,43.500 29.874 C 53.740 26.012,67.758 26.139,76.299 30.171 C 76.876 30.444,77.388 30.667,77.437 30.667 C 77.486 30.667,78.206 31.004,79.036 31.417 C 80.870 32.328,80.725 32.328,81.166 31.418 C 81.366 31.006,81.599 30.625,81.684 30.573 C 81.769 30.520,81.799 30.412,81.750 30.333 C 81.701 30.254,81.729 30.148,81.812 30.096 C 81.896 30.045,82.172 29.608,82.427 29.126 C 82.910 28.213,83.102 27.862,83.728 26.750 C 85.493 23.611,85.510 23.985,83.561 22.971 C 81.316 21.802,76.930 20.008,75.083 19.502 C 67.652 17.466,60.325 16.694,54.583 17.342 M114.500 49.916 L 114.500 77.333 157.084 77.333 L 199.668 77.333 199.625 49.958 L 199.583 22.583 157.042 22.541 L 114.500 22.499 114.500 49.916 M47.250 32.169 C 44.740 32.847,40.125 35.029,40.289 35.460 C 40.391 35.729,41.755 38.530,43.378 41.802 C 44.232 43.523,43.936 43.458,46.084 42.404 C 47.092 41.910,48.317 41.380,48.806 41.225 L 49.696 40.945 49.592 40.181 C 49.535 39.761,49.378 38.817,49.244 38.083 C 48.719 35.221,48.167 32.141,48.167 32.072 C 48.167 31.974,47.848 32.008,47.250 32.169 M135.417 34.244 C 137.149 34.520,137.834 34.698,139.333 35.263 C 140.949 35.871,140.894 35.774,140.353 37.092 C 140.092 37.729,139.600 38.981,139.259 39.875 C 138.919 40.769,138.619 41.500,138.593 41.500 C 138.567 41.500,137.996 41.273,137.324 40.996 C 130.952 38.368,127.333 40.775,127.333 47.642 C 127.333 54.717,131.363 56.649,139.375 53.415 C 139.647 53.306,139.667 53.511,139.667 56.385 L 139.667 59.473 138.375 59.889 C 133.101 61.590,127.094 60.938,124.083 58.339 C 118.892 53.856,118.527 42.931,123.395 37.719 C 126.239 34.673,130.453 33.455,135.417 34.244 M189.468 34.245 C 191.716 34.583,194.839 35.583,194.831 35.962 C 194.826 36.178,192.832 41.235,192.706 41.353 C 192.638 41.416,191.958 41.213,191.193 40.903 C 184.965 38.375,181.500 40.754,181.500 47.559 C 181.500 54.224,184.785 56.398,191.454 54.149 C 194.072 53.267,193.833 53.022,193.833 56.591 C 193.833 59.663,193.944 59.405,192.395 59.935 C 189.858 60.802,185.680 61.103,183.183 60.597 C 177.216 59.388,174.075 54.890,174.096 47.583 C 174.122 38.135,180.208 32.854,189.468 34.245 M154.788 36.042 C 155.592 37.631,156.868 40.074,159.118 44.333 C 159.627 45.296,160.719 47.396,161.546 49.000 C 162.373 50.604,163.095 51.969,163.150 52.033 C 163.205 52.098,163.227 48.141,163.198 43.242 L 163.146 34.333 166.323 34.333 L 169.500 34.333 169.500 47.419 L 169.500 60.505 164.821 60.461 L 160.141 60.417 159.272 58.750 C 156.749 53.912,152.379 45.500,151.463 43.717 C 150.588 42.014,150.599 41.996,150.818 44.788 C 150.918 46.061,151.000 50.117,151.000 53.801 L 151.000 60.500 147.833 60.500 L 144.667 60.500 144.667 47.417 L 144.667 34.333 149.295 34.333 L 153.924 34.333 154.788 36.042 M73.014 48.003 C 72.731 48.462,72.500 48.871,72.500 48.911 C 72.500 48.951,72.285 49.306,72.023 49.700 C 71.760 50.094,71.340 50.792,71.089 51.250 C 70.837 51.708,70.563 52.168,70.480 52.271 C 70.304 52.486,70.458 53.000,70.697 53.000 C 71.244 53.000,74.741 56.153,75.937 57.724 L 76.250 58.135 77.116 57.693 C 77.592 57.449,78.342 57.052,78.783 56.809 C 79.223 56.567,80.069 56.104,80.662 55.780 C 81.256 55.457,81.766 55.118,81.797 55.027 C 81.978 54.483,77.442 49.658,75.582 48.417 C 75.033 48.050,74.546 47.705,74.500 47.650 C 74.403 47.534,73.726 47.167,73.609 47.167 C 73.565 47.167,73.297 47.543,73.014 48.003 M45.931 57.607 C 45.799 57.949,45.910 58.070,46.240 57.944 C 46.386 57.887,46.453 57.737,46.396 57.590 C 46.268 57.256,46.063 57.263,45.931 57.607 M20.574 60.802 C 20.523 61.049,20.406 61.579,20.316 61.981 C 20.225 62.383,20.112 63.020,20.065 63.397 C 20.018 63.775,19.909 64.491,19.823 64.989 C 19.737 65.487,19.667 66.293,19.667 66.781 L 19.667 67.667 21.724 67.667 C 22.855 67.667,24.917 67.716,26.307 67.776 L 28.833 67.885 28.833 67.041 C 28.833 66.576,28.946 65.608,29.083 64.890 C 29.462 62.912,29.467 62.930,28.458 62.609 C 26.091 61.854,24.328 61.321,23.470 61.101 C 22.950 60.967,22.387 60.788,22.220 60.702 C 21.410 60.286,20.673 60.331,20.574 60.802 M43.830 96.792 C 43.708 97.044,43.596 97.287,43.583 97.333 C 43.513 97.580,43.077 98.451,42.916 98.667 C 42.813 98.804,42.584 99.254,42.407 99.667 C 42.229 100.079,41.765 101.011,41.375 101.737 C 40.986 102.464,40.667 103.148,40.667 103.258 C 40.667 103.369,40.554 103.553,40.417 103.667 C 39.951 104.053,40.140 104.417,41.042 104.869 C 44.220 106.461,47.320 107.624,47.520 107.300 C 47.582 107.200,47.830 106.060,48.072 104.767 C 48.313 103.474,48.616 101.929,48.746 101.333 C 48.875 100.737,49.027 99.963,49.084 99.613 C 49.140 99.263,49.221 98.885,49.264 98.773 C 49.310 98.654,49.082 98.480,48.713 98.351 C 47.903 98.070,46.501 97.439,45.310 96.821 C 44.157 96.223,44.108 96.222,43.830 96.792 M338.212 107.616 C 335.378 109.244,335.848 113.071,338.869 112.965 L 340.250 112.917 340.304 112.441 L 340.359 111.965 339.324 112.044 C 338.028 112.143,337.662 111.864,337.676 110.792 C 337.703 108.778,338.849 107.842,340.593 108.410 C 341.061 108.563,341.450 107.805,341.067 107.487 C 340.596 107.096,338.991 107.169,338.212 107.616 M374.514 107.586 C 373.250 108.318,372.676 109.364,372.670 110.946 C 372.664 112.634,373.113 113.027,374.978 112.965 L 376.417 112.917 376.471 112.441 L 376.526 111.965 375.491 112.044 C 374.261 112.138,373.833 111.852,373.833 110.938 C 373.833 108.979,375.012 107.803,376.454 108.324 C 377.034 108.534,377.479 108.282,377.495 107.735 C 377.513 107.110,375.509 107.009,374.514 107.586 M365.273 107.792 C 365.225 108.044,365.101 108.813,364.997 109.500 C 364.893 110.188,364.701 111.215,364.571 111.784 C 364.440 112.353,364.333 112.859,364.333 112.909 C 364.333 112.959,364.587 113.000,364.898 113.000 C 365.445 113.000,365.465 112.976,365.570 112.208 C 366.039 108.768,366.026 108.775,367.161 111.375 L 367.870 113.000 368.512 113.000 C 369.244 113.000,369.332 112.815,369.662 110.583 C 369.757 109.942,369.908 109.117,369.997 108.750 C 370.282 107.577,370.228 107.333,369.688 107.333 C 369.184 107.333,369.058 107.720,368.568 110.750 C 368.464 111.397,368.455 111.404,368.281 111.000 C 366.694 107.305,366.712 107.333,365.987 107.333 C 365.435 107.333,365.349 107.388,365.273 107.792 M342.192 108.814 C 341.629 109.171,342.064 109.583,343.004 109.583 C 344.311 109.583,344.373 110.192,343.083 110.355 C 341.421 110.565,340.599 111.522,341.168 112.585 C 341.411 113.039,343.059 113.208,343.448 112.819 C 343.578 112.688,343.660 112.688,343.741 112.819 C 344.263 113.664,345.183 111.569,345.169 109.567 C 345.164 108.800,343.056 108.267,342.192 108.814 M346.257 109.292 C 346.207 109.635,346.086 110.329,345.989 110.833 C 345.891 111.337,345.768 112.037,345.716 112.387 L 345.619 113.025 346.178 112.971 C 346.724 112.918,346.742 112.891,346.950 111.833 C 347.278 110.162,347.316 110.041,347.595 109.762 C 348.285 109.072,349.099 109.675,348.842 110.685 C 348.763 110.996,348.651 111.644,348.593 112.125 L 348.489 113.000 348.981 113.000 C 349.818 113.000,350.446 109.250,349.678 108.839 C 349.236 108.603,347.779 108.621,347.533 108.867 C 347.378 109.022,347.333 109.022,347.333 108.867 C 347.333 108.283,346.348 108.672,346.257 109.292 M351.768 109.016 C 350.725 109.836,350.329 111.692,351.012 112.561 C 351.351 112.992,353.662 113.265,353.669 112.875 C 353.670 112.806,353.720 112.569,353.779 112.349 C 353.884 111.956,353.870 111.950,353.085 112.057 C 352.153 112.185,351.833 112.001,351.833 111.338 C 351.833 110.066,352.421 109.460,353.514 109.605 C 354.097 109.682,354.647 109.205,354.412 108.827 C 354.211 108.501,352.244 108.641,351.768 109.016 M355.601 109.016 C 354.534 109.855,354.155 111.714,354.880 112.557 C 355.577 113.368,358.000 113.156,358.000 112.284 C 358.000 112.002,357.913 111.981,357.181 112.081 C 356.241 112.211,355.667 111.988,355.667 111.494 C 355.667 111.194,355.786 111.167,357.083 111.167 L 358.500 111.167 358.500 110.250 C 358.500 108.716,356.867 108.020,355.601 109.016 M359.588 109.042 C 359.541 109.248,359.424 109.904,359.329 110.500 C 359.234 111.096,359.093 111.902,359.017 112.292 L 358.878 113.000 359.421 113.000 C 360.037 113.000,360.106 112.888,360.267 111.627 C 360.459 110.118,360.715 109.809,361.917 109.630 C 362.140 109.597,362.267 109.430,362.303 109.124 C 362.366 108.572,361.350 108.449,360.805 108.942 C 360.521 109.199,360.500 109.199,360.500 108.942 C 360.500 108.494,359.692 108.582,359.588 109.042 M377.777 110.125 C 377.431 111.931,377.428 112.405,377.762 112.738 C 378.065 113.041,379.505 113.098,380.011 112.827 C 380.233 112.709,380.333 112.709,380.333 112.827 C 380.333 113.075,381.166 113.041,381.234 112.792 C 381.312 112.511,381.677 110.254,381.788 109.375 C 381.875 108.679,381.868 108.667,381.375 108.667 C 380.842 108.667,380.501 109.427,380.499 110.615 C 380.498 111.696,379.857 112.218,378.769 112.026 C 378.688 112.012,378.675 111.645,378.742 111.208 C 378.808 110.773,378.892 110.192,378.928 109.917 C 378.965 109.642,379.034 109.248,379.084 109.042 C 379.163 108.710,379.109 108.667,378.615 108.667 L 378.057 108.667 377.777 110.125 M382.929 109.042 C 382.730 110.003,382.333 112.447,382.333 112.708 C 382.333 112.919,382.468 113.000,382.819 113.000 C 383.292 113.000,383.313 112.964,383.598 111.647 C 383.920 110.154,384.274 109.667,385.036 109.667 C 385.451 109.667,385.833 109.223,385.833 108.739 C 385.833 108.530,384.405 108.701,384.138 108.942 C 383.855 109.199,383.833 109.199,383.833 108.942 C 383.833 108.493,383.024 108.582,382.929 109.042 M386.505 109.308 C 385.706 110.132,385.481 111.345,385.951 112.305 L 386.250 112.917 387.667 112.917 L 389.083 112.917 389.137 112.445 L 389.191 111.973 388.261 112.089 C 387.250 112.215,386.833 112.037,386.833 111.480 C 386.833 111.198,386.975 111.167,388.250 111.167 L 389.667 111.167 389.667 110.176 C 389.667 108.483,387.803 107.971,386.505 109.308 M357.399 109.764 C 357.590 110.262,357.498 110.333,356.667 110.333 C 355.761 110.333,355.691 110.267,356.109 109.805 C 356.450 109.428,357.260 109.402,357.399 109.764 M388.403 109.601 C 389.068 109.856,388.691 110.333,387.823 110.333 C 386.970 110.333,386.935 110.283,387.380 109.708 C 387.553 109.484,387.980 109.439,388.403 109.601 M343.719 111.458 C 343.531 111.987,343.299 112.167,342.808 112.167 C 342.258 112.167,342.022 111.791,342.335 111.415 C 342.648 111.038,343.855 111.076,343.719 111.458 " stroke="none" fill="#43348b" fill-rule="evenodd"></path><path id="path3" d="M37.767 36.587 C 37.254 36.855,35.340 38.192,34.970 38.541 C 34.849 38.656,34.375 39.047,33.916 39.409 C 33.458 39.772,32.866 40.275,32.600 40.528 L 32.116 40.987 32.706 41.702 C 33.031 42.095,33.459 42.604,33.658 42.833 C 33.857 43.063,34.150 43.400,34.309 43.583 C 34.467 43.767,34.932 44.295,35.340 44.758 C 35.749 45.221,36.486 46.065,36.978 46.633 C 38.032 47.850,38.187 47.875,39.141 46.990 C 39.539 46.620,40.422 45.898,41.103 45.386 C 42.555 44.293,42.573 44.682,40.924 41.352 C 40.261 40.013,39.433 38.335,39.084 37.625 C 38.380 36.193,38.437 36.238,37.767 36.587 M66.434 45.047 C 66.299 45.525,66.077 46.367,65.940 46.917 C 65.804 47.467,65.574 48.384,65.429 48.956 C 65.063 50.407,65.076 50.463,65.827 50.665 C 66.190 50.763,67.025 51.072,67.683 51.351 C 68.670 51.771,68.914 51.821,69.083 51.638 C 69.355 51.344,71.000 48.507,71.000 48.332 C 71.000 48.256,71.059 48.169,71.131 48.139 C 71.381 48.033,72.183 46.495,72.078 46.324 C 72.019 46.230,71.472 45.926,70.861 45.650 C 70.250 45.373,69.620 45.076,69.461 44.990 C 69.301 44.904,69.069 44.833,68.945 44.833 C 68.820 44.833,68.500 44.730,68.234 44.603 C 67.003 44.018,66.705 44.091,66.434 45.047 M19.716 72.185 C 19.887 77.312,20.116 78.078,21.373 77.723 C 22.584 77.381,23.723 77.076,25.000 76.752 C 25.596 76.602,26.458 76.379,26.917 76.258 C 27.375 76.137,28.096 75.948,28.518 75.837 L 29.286 75.637 29.065 74.610 C 28.944 74.045,28.842 73.171,28.838 72.667 C 28.826 71.236,28.642 70.026,28.422 69.942 C 28.312 69.900,26.289 69.810,23.926 69.742 L 19.630 69.619 19.716 72.185 M67.583 88.281 C 67.033 88.516,66.347 88.811,66.058 88.937 C 65.769 89.063,65.442 89.167,65.330 89.167 C 65.216 89.167,65.165 89.294,65.212 89.458 C 65.258 89.619,65.387 90.125,65.498 90.583 C 66.006 92.687,66.186 93.405,66.447 94.375 C 66.601 94.948,66.742 95.439,66.761 95.467 C 66.807 95.536,68.650 94.909,70.208 94.295 C 71.691 93.711,71.740 93.597,71.038 92.382 C 70.784 91.943,70.165 90.741,69.663 89.711 C 69.161 88.681,68.712 87.842,68.667 87.847 C 68.621 87.851,68.133 88.047,67.583 88.281 M33.989 93.868 C 32.299 95.618,30.894 97.143,30.867 97.256 C 30.839 97.369,31.396 97.976,32.104 98.606 C 32.812 99.235,33.514 99.867,33.664 100.010 C 34.543 100.849,38.280 103.456,38.398 103.313 C 38.427 103.278,38.692 102.725,38.989 102.083 C 39.285 101.442,40.175 99.626,40.966 98.049 C 41.757 96.472,42.370 95.156,42.327 95.123 C 40.032 93.362,39.056 92.566,38.160 91.721 L 37.062 90.685 33.989 93.868 " stroke="none" fill="#04bcf4" fill-rule="evenodd"></path><path id="path4" d="M114.077 22.208 C 114.033 22.323,114.017 34.867,114.041 50.083 L 114.083 77.750 250.149 77.792 C 350.609 77.823,386.275 77.785,386.441 77.646 C 386.755 77.386,386.780 22.514,386.467 22.200 C 386.167 21.901,114.191 21.909,114.077 22.208 M199.625 49.958 L 199.668 77.333 157.084 77.333 L 114.500 77.333 114.500 49.916 L 114.500 22.499 157.042 22.541 L 199.583 22.583 199.625 49.958 M386.000 49.917 L 386.000 77.167 293.083 77.167 L 200.167 77.167 200.167 49.917 L 200.167 22.667 293.083 22.667 L 386.000 22.667 386.000 49.917 M119.323 87.625 C 118.031 88.280,117.482 89.129,117.374 90.638 C 117.229 92.665,118.010 93.717,120.667 95.072 C 122.864 96.193,123.212 96.587,122.850 97.539 C 122.480 98.512,120.386 98.521,118.209 97.558 C 117.722 97.343,117.288 97.167,117.245 97.167 C 117.202 97.167,117.167 97.840,117.167 98.662 L 117.167 100.157 118.329 100.510 C 121.918 101.600,125.546 100.282,125.925 97.750 C 126.279 95.389,125.487 94.194,122.621 92.769 C 118.973 90.955,119.951 88.687,123.782 90.077 C 125.077 90.547,124.995 90.587,125.579 89.186 C 126.088 87.967,126.103 87.994,124.676 87.522 C 122.993 86.965,120.530 87.013,119.323 87.625 M132.281 87.275 C 132.218 87.338,132.167 90.376,132.167 94.028 L 132.167 100.667 136.090 100.667 L 140.014 100.667 139.965 99.375 L 139.917 98.083 137.542 98.083 L 135.166 98.083 135.167 96.542 L 135.167 95.000 137.417 95.000 L 139.667 95.000 139.667 93.750 L 139.667 92.500 137.417 92.500 L 135.167 92.500 135.167 91.167 L 135.167 89.833 137.590 89.833 L 140.014 89.833 139.965 88.542 L 139.917 87.250 136.156 87.205 C 134.087 87.181,132.344 87.212,132.281 87.275 M146.500 93.900 L 146.500 100.679 148.042 100.631 L 149.583 100.583 149.629 98.125 L 149.676 95.667 150.248 95.667 C 150.786 95.667,150.872 95.751,151.702 97.089 C 152.187 97.872,152.696 98.688,152.833 98.903 C 152.971 99.119,153.266 99.603,153.489 99.981 L 153.895 100.667 155.531 100.667 C 157.528 100.667,157.544 100.912,155.339 97.634 C 153.734 95.247,153.546 94.896,153.797 94.750 C 155.196 93.934,155.942 92.438,155.771 90.790 C 155.488 88.058,154.230 87.344,149.458 87.207 L 146.500 87.122 146.500 93.900 M161.104 87.300 C 161.058 87.374,161.312 88.292,161.668 89.342 C 162.023 90.391,162.922 93.050,163.666 95.250 C 164.409 97.450,165.136 99.569,165.281 99.958 L 165.545 100.667 167.167 100.667 L 168.788 100.667 169.053 99.958 C 169.199 99.569,169.582 98.462,169.905 97.500 C 171.342 93.214,171.864 91.647,172.346 90.167 C 172.629 89.296,172.971 88.339,173.106 88.040 C 173.457 87.260,173.311 87.167,171.744 87.167 C 170.371 87.167,169.710 87.544,169.843 88.253 C 169.864 88.361,169.204 90.484,168.240 93.417 C 167.848 94.608,167.475 95.865,167.411 96.210 C 167.292 96.856,167.000 97.235,167.000 96.744 C 167.000 96.446,165.780 92.310,165.010 90.000 C 164.751 89.221,164.486 88.359,164.422 88.084 C 164.228 87.245,164.069 87.167,162.573 87.167 C 161.810 87.167,161.149 87.227,161.104 87.300 M178.784 87.272 C 178.719 87.336,178.667 90.376,178.667 94.028 L 178.667 100.667 180.252 100.667 L 181.837 100.667 181.794 93.958 L 181.750 87.250 180.325 87.202 C 179.542 87.176,178.848 87.207,178.784 87.272 M192.066 87.459 C 186.896 89.660,186.825 98.538,191.962 100.554 C 193.369 101.106,197.596 100.795,198.039 100.107 C 198.186 99.879,198.208 98.134,198.068 97.771 C 197.982 97.546,197.895 97.543,197.360 97.744 C 193.402 99.231,191.357 97.769,191.524 93.573 C 191.657 90.230,193.341 89.015,196.342 90.098 C 197.000 90.335,197.595 90.466,197.665 90.390 C 197.836 90.202,198.500 88.379,198.500 88.096 C 198.500 87.353,193.483 86.856,192.066 87.459 M204.577 87.372 C 204.533 87.489,204.516 90.509,204.540 94.084 L 204.583 100.583 208.549 100.628 L 212.514 100.673 212.465 99.378 L 212.417 98.083 210.042 98.083 L 207.666 98.083 207.667 96.542 L 207.667 95.000 209.833 95.000 L 212.000 95.000 212.000 93.750 L 212.000 92.500 209.833 92.500 L 207.667 92.500 207.667 91.167 L 207.667 89.833 210.090 89.833 L 212.514 89.833 212.465 88.542 L 212.417 87.250 208.538 87.205 C 205.521 87.170,204.640 87.208,204.577 87.372 M226.500 88.500 L 226.500 89.833 228.333 89.833 L 230.167 89.833 230.167 95.250 L 230.167 100.667 231.583 100.667 L 233.000 100.667 233.000 95.250 L 233.000 89.833 234.806 89.833 C 236.957 89.833,236.762 89.978,236.695 88.431 L 236.640 87.167 231.570 87.167 L 226.500 87.167 226.500 88.500 M245.392 87.541 C 240.727 89.582,240.575 98.075,245.164 100.290 C 247.117 101.232,250.385 100.996,252.217 99.781 C 255.114 97.859,255.549 91.576,252.979 88.752 C 251.582 87.217,247.591 86.580,245.392 87.541 M270.000 93.745 C 270.000 97.369,269.981 100.390,269.958 100.458 C 269.935 100.527,270.535 100.605,271.292 100.632 L 272.667 100.680 272.675 96.132 C 272.685 90.822,272.537 90.743,274.456 97.083 C 274.595 97.542,274.802 98.217,274.916 98.583 C 275.031 98.950,275.213 99.572,275.321 99.965 L 275.517 100.679 276.941 100.631 L 278.365 100.583 278.611 99.917 C 278.746 99.550,278.916 99.025,278.990 98.750 C 279.063 98.475,279.201 98.063,279.295 97.833 C 279.389 97.604,279.708 96.629,280.003 95.667 C 280.298 94.704,280.644 93.670,280.770 93.369 C 280.897 93.068,281.000 92.721,281.000 92.597 C 281.000 92.473,281.099 92.135,281.221 91.847 C 281.411 91.395,281.440 91.965,281.429 95.953 L 281.417 100.583 282.877 100.632 L 284.337 100.680 284.294 93.965 L 284.250 87.250 282.252 87.250 L 280.254 87.250 279.701 89.000 C 279.397 89.962,279.047 91.013,278.924 91.333 C 278.800 91.654,278.545 92.404,278.358 93.000 C 278.170 93.596,277.937 94.308,277.839 94.583 C 277.742 94.858,277.525 95.514,277.357 96.040 L 277.053 96.998 276.834 96.290 C 276.714 95.902,276.412 94.946,276.163 94.167 C 275.914 93.388,275.518 92.112,275.283 91.333 C 275.048 90.554,274.674 89.317,274.451 88.583 L 274.047 87.250 272.023 87.203 L 270.000 87.156 270.000 93.745 M294.190 87.703 C 294.070 88.004,293.908 88.475,293.832 88.750 C 293.755 89.025,293.454 89.888,293.161 90.667 C 292.869 91.446,292.531 92.383,292.410 92.750 C 292.289 93.117,291.688 94.842,291.074 96.583 C 290.461 98.325,289.922 99.956,289.877 100.208 L 289.796 100.667 291.387 100.667 L 292.979 100.667 293.460 99.125 L 293.941 97.583 296.208 97.537 C 298.263 97.495,298.482 97.518,298.550 97.787 C 298.592 97.950,298.801 98.665,299.016 99.375 L 299.407 100.667 301.037 100.667 C 301.933 100.667,302.667 100.639,302.667 100.605 C 302.667 100.481,301.840 98.035,301.082 95.917 C 300.656 94.725,300.208 93.450,300.088 93.083 C 299.967 92.717,299.515 91.442,299.083 90.250 C 298.652 89.058,298.245 87.896,298.179 87.667 C 298.062 87.259,298.021 87.249,296.235 87.203 L 294.410 87.156 294.190 87.703 M308.116 87.273 C 308.052 87.337,308.000 90.376,308.000 94.028 L 308.000 100.667 309.414 100.667 L 310.828 100.667 310.872 96.042 L 310.917 91.417 311.583 92.582 C 311.950 93.223,312.341 93.898,312.452 94.082 C 312.563 94.266,312.709 94.529,312.777 94.667 C 312.844 94.804,313.343 95.667,313.884 96.583 C 314.425 97.500,315.097 98.662,315.377 99.167 C 315.657 99.671,315.967 100.215,316.067 100.375 C 316.221 100.625,316.516 100.667,318.123 100.667 L 320.000 100.667 320.000 93.917 L 320.000 87.167 318.669 87.167 L 317.339 87.167 317.294 91.836 L 317.250 96.505 316.226 94.794 C 315.663 93.853,314.994 92.708,314.740 92.250 C 314.485 91.792,313.967 90.892,313.589 90.250 C 313.210 89.608,312.847 88.971,312.782 88.833 C 312.717 88.696,312.485 88.283,312.266 87.917 L 311.868 87.250 310.050 87.203 C 309.050 87.177,308.180 87.209,308.116 87.273 M327.111 87.278 C 327.050 87.339,327.000 90.376,327.000 94.028 L 327.000 100.667 328.583 100.667 L 330.167 100.667 330.167 98.362 C 330.167 96.139,330.181 96.045,330.571 95.678 C 331.109 95.173,331.062 95.124,332.918 98.081 L 334.541 100.667 336.187 100.667 C 337.107 100.667,337.833 100.597,337.833 100.510 C 337.833 100.341,337.166 99.138,336.995 99.000 C 336.939 98.954,336.841 98.804,336.778 98.667 C 336.715 98.529,336.533 98.216,336.373 97.971 C 335.824 97.126,334.083 94.324,333.894 93.982 C 333.790 93.793,333.626 93.559,333.528 93.462 C 333.340 93.274,333.608 92.893,336.371 89.425 C 338.221 87.103,338.225 87.164,336.208 87.176 L 334.583 87.185 333.719 88.301 C 333.244 88.915,332.269 90.183,331.552 91.121 L 330.250 92.824 330.204 89.996 L 330.159 87.167 328.691 87.167 C 327.883 87.167,327.172 87.217,327.111 87.278 M343.333 93.910 L 343.333 100.667 344.919 100.667 L 346.504 100.667 346.460 93.958 L 346.417 87.250 344.875 87.202 L 343.333 87.154 343.333 93.910 M353.611 87.278 C 353.550 87.339,353.500 90.376,353.500 94.028 L 353.500 100.667 354.936 100.667 L 356.371 100.667 356.308 96.015 C 356.274 93.456,356.303 91.398,356.373 91.441 C 356.443 91.484,356.500 91.579,356.500 91.653 C 356.500 91.726,356.886 92.453,357.357 93.268 C 358.571 95.367,358.924 95.983,360.333 98.466 L 361.583 100.667 363.544 100.667 L 365.504 100.667 365.460 93.958 L 365.417 87.250 364.042 87.202 L 362.667 87.153 362.667 91.860 L 362.667 96.566 361.750 95.015 C 361.246 94.162,360.833 93.437,360.833 93.405 C 360.833 93.373,360.006 91.956,358.995 90.257 L 357.157 87.167 355.440 87.167 C 354.495 87.167,353.672 87.217,353.611 87.278 M372.611 87.278 C 372.550 87.339,372.500 90.376,372.500 94.028 L 372.500 100.667 375.292 100.665 C 379.063 100.662,380.389 100.294,381.837 98.846 C 384.949 95.733,384.073 89.645,380.261 87.900 C 378.941 87.296,373.071 86.818,372.611 87.278 M249.785 89.994 C 252.308 91.532,251.885 97.600,249.220 98.100 C 247.461 98.430,246.169 97.868,245.537 96.500 C 245.059 95.466,245.141 92.110,245.667 91.172 C 246.449 89.775,248.475 89.196,249.785 89.994 M151.675 90.022 C 152.878 90.383,153.153 91.635,152.231 92.557 C 151.823 92.964,151.614 93.042,150.917 93.042 C 150.779 93.042,150.442 93.032,150.167 93.021 L 149.667 93.000 149.667 91.417 L 149.667 89.833 150.356 89.833 C 150.735 89.833,151.328 89.918,151.675 90.022 M378.984 90.386 C 379.925 91.009,380.371 91.952,380.465 93.521 C 380.641 96.473,379.441 97.939,376.766 98.037 L 375.500 98.083 375.500 93.937 L 375.500 89.792 376.904 89.865 C 378.074 89.927,378.420 90.013,378.984 90.386 M296.917 92.417 C 297.071 92.967,297.310 93.740,297.449 94.135 C 297.769 95.045,297.805 95.023,296.129 94.965 L 294.716 94.917 295.170 93.500 C 295.420 92.721,295.759 91.634,295.924 91.085 L 296.223 90.086 296.430 90.751 C 296.545 91.117,296.764 91.867,296.917 92.417 " stroke="none" fill="#2c4583" fill-rule="evenodd"></path><path id="path5" d="M56.500 30.361 C 53.418 30.664,50.465 31.146,50.226 31.386 C 50.146 31.466,50.419 33.271,50.698 34.500 C 50.791 34.912,50.930 35.700,51.007 36.250 C 51.214 37.735,51.640 40.196,51.699 40.248 C 51.727 40.273,52.612 40.119,53.667 39.905 C 54.721 39.691,55.921 39.511,56.333 39.506 C 56.746 39.502,57.591 39.450,58.211 39.391 L 59.338 39.285 59.258 38.517 C 59.214 38.095,59.090 36.775,58.983 35.583 C 58.876 34.392,58.705 32.704,58.603 31.833 C 58.391 30.030,58.572 30.157,56.500 30.361 M146.958 34.458 C 148.265 34.486,150.402 34.486,151.708 34.458 C 153.015 34.430,151.946 34.407,149.333 34.407 C 146.721 34.407,145.652 34.430,146.958 34.458 M164.708 34.458 C 165.602 34.488,167.065 34.488,167.958 34.458 C 168.852 34.428,168.121 34.403,166.333 34.403 C 164.546 34.403,163.815 34.428,164.708 34.458 M29.834 43.268 C 29.438 43.691,28.812 44.422,28.442 44.893 C 28.072 45.364,27.709 45.775,27.635 45.806 C 27.561 45.836,27.500 45.961,27.500 46.083 C 27.500 46.206,27.437 46.331,27.359 46.361 C 27.282 46.392,26.746 47.129,26.168 48.000 C 25.591 48.871,24.994 49.771,24.842 50.000 C 23.900 51.421,21.532 56.924,21.456 57.868 C 21.419 58.327,21.475 58.374,22.417 58.670 C 23.966 59.156,25.982 59.765,27.083 60.079 C 27.633 60.235,28.386 60.469,28.756 60.598 C 29.852 60.982,30.102 60.918,30.301 60.208 C 31.098 57.361,33.464 53.118,35.773 50.397 L 36.686 49.321 36.241 48.785 C 35.997 48.491,35.485 47.913,35.105 47.500 C 34.724 47.087,33.779 46.000,33.004 45.083 C 30.508 42.130,30.763 42.277,29.834 43.268 M56.750 43.331 C 51.886 43.773,45.670 46.363,42.333 49.338 C 35.719 55.235,32.798 61.514,32.798 69.833 C 32.798 73.483,33.226 76.263,34.133 78.500 C 34.226 78.729,34.467 79.329,34.668 79.833 C 37.222 86.244,43.759 92.714,49.495 94.510 C 49.727 94.582,50.329 94.799,50.833 94.991 C 53.843 96.138,59.106 96.762,62.167 96.335 C 62.854 96.239,63.810 96.114,64.292 96.057 C 65.297 95.938,65.328 95.855,64.917 94.390 C 64.416 92.607,64.196 91.737,64.089 91.110 C 63.867 89.814,63.690 89.619,62.840 89.732 C 44.602 92.171,32.468 72.518,43.198 57.917 C 47.569 51.968,55.868 48.513,62.560 49.857 C 63.718 50.090,63.545 50.309,64.162 47.831 C 64.448 46.686,64.788 45.345,64.918 44.850 C 65.049 44.355,65.121 43.894,65.079 43.826 C 64.822 43.411,59.409 43.089,56.750 43.331 M150.883 47.000 C 150.883 47.504,150.915 47.710,150.953 47.458 C 150.991 47.206,150.991 46.794,150.953 46.542 C 150.915 46.290,150.883 46.496,150.883 47.000 M174.059 47.583 C 174.059 48.408,174.087 48.767,174.122 48.380 C 174.157 47.993,174.157 47.318,174.123 46.880 C 174.088 46.442,174.060 46.758,174.059 47.583 M181.392 47.500 C 181.392 48.279,181.420 48.598,181.455 48.208 C 181.490 47.819,181.490 47.181,181.455 46.792 C 181.420 46.402,181.392 46.721,181.392 47.500 M163.218 50.083 C 163.219 50.633,163.250 50.838,163.287 50.539 C 163.325 50.239,163.324 49.789,163.286 49.539 C 163.248 49.288,163.217 49.533,163.218 50.083 M193.735 56.500 C 193.735 58.104,193.760 58.760,193.791 57.958 C 193.821 57.156,193.821 55.844,193.791 55.042 C 193.760 54.240,193.735 54.896,193.735 56.500 M28.667 77.867 C 28.005 78.056,26.914 78.344,25.333 78.746 C 24.738 78.898,23.875 79.121,23.417 79.242 C 22.958 79.363,22.227 79.555,21.792 79.669 C 21.126 79.844,21.000 79.940,21.000 80.274 C 21.000 81.347,23.882 88.131,25.101 89.927 C 25.320 90.250,25.500 90.544,25.500 90.580 C 25.500 90.775,28.040 94.292,28.903 95.292 C 29.279 95.727,29.396 95.749,29.696 95.441 C 29.818 95.316,31.210 93.892,32.792 92.274 C 36.106 88.885,35.894 89.327,34.833 88.000 C 34.375 87.427,34.000 86.897,34.000 86.824 C 34.000 86.751,33.902 86.591,33.783 86.470 C 32.894 85.566,30.174 79.753,29.879 78.125 C 29.789 77.628,29.625 77.594,28.667 77.867 M51.164 99.590 C 51.074 99.828,51.000 100.208,51.000 100.435 C 51.000 100.662,50.894 101.314,50.764 101.882 C 50.634 102.451,50.402 103.554,50.249 104.333 C 50.096 105.112,49.856 106.260,49.716 106.883 C 49.575 107.506,49.488 108.036,49.522 108.061 C 49.632 108.143,51.375 108.510,53.333 108.864 C 56.540 109.444,65.271 109.323,66.304 108.685 C 66.499 108.564,66.396 107.191,65.837 102.481 C 65.743 101.692,65.667 100.777,65.667 100.449 C 65.667 99.662,65.675 99.664,63.750 99.954 C 60.609 100.426,56.069 100.267,53.167 99.584 C 51.202 99.122,51.342 99.121,51.164 99.590 " stroke="none" fill="#832c84" fill-rule="evenodd"></path></g></svg>