<svg id="Group_661" data-name="Group 661" xmlns="http://www.w3.org/2000/svg" xmlns:xlink="http://www.w3.org/1999/xlink" width="28.107" height="29.229" viewBox="0 0 28.107 29.229">
  <defs>
    <clipPath id="clip-path">
      <rect id="Rectangle_71" data-name="Rectangle 71" width="28.107" height="29.229" fill="none"/>
    </clipPath>
    <clipPath id="clip-path-2">
      <path id="Path_336" data-name="Path 336" d="M31.084,42.248c1.223,1.887,2.745,1.136,4.525,1.051a15.509,15.509,0,0,1,4.654.987,9.4,9.4,0,0,0-3.067-1.93c-1.629-.536-2.359-.215-2.53-1.137-.9-.15-1.587-.021-1.737-1.844a8.42,8.42,0,0,0-2.616-4.718c.922,2.23-.45,5.7.772,7.592" transform="translate(-30.312 -34.656)" fill="none"/>
    </clipPath>
    <linearGradient id="linear-gradient" x1="-1.009" y1="0.937" x2="-0.971" y2="0.937" gradientUnits="objectBoundingBox">
      <stop offset="0" stop-color="#af3234"/>
      <stop offset="1" stop-color="#eb7375"/>
    </linearGradient>
    <clipPath id="clip-path-4">
      <rect id="Rectangle_49" data-name="Rectangle 49" width="1.173" height="9.223" fill="none"/>
    </clipPath>
    <clipPath id="clip-path-5">
      <rect id="Rectangle_50" data-name="Rectangle 50" width="0.816" height="6.161" fill="none"/>
    </clipPath>
    <clipPath id="clip-path-6">
      <path id="Path_355" data-name="Path 355" d="M41.989,31.859A10.329,10.329,0,0,1,38.6,37.127c-.022,1.139,1.429,1.251,3.059,1.809S45,41.414,45.919,40.923c.3-.163.415-.743.418-1.5v-.056a26.672,26.672,0,0,0-.656-4.731c-.328-1.489-.893-7.323-2.679-8.93a22.576,22.576,0,0,1-1.013,6.155" transform="translate(-38.596 -25.704)" fill="none"/>
    </clipPath>
    <linearGradient id="linear-gradient-2" x1="-1.042" y1="0.954" x2="-1.009" y2="0.954" xlink:href="#linear-gradient"/>
    <clipPath id="clip-path-8">
      <rect id="Rectangle_53" data-name="Rectangle 53" width="2.758" height="8.19" fill="none"/>
    </clipPath>
    <clipPath id="clip-path-9">
      <path id="Path_359" data-name="Path 359" d="M32.142,9.133a3.6,3.6,0,0,0-2.53,1.311l0,0c-.851,1.117-1.005,2.887-.569,5.184-1.49,2.642-1.46,3.952-.76,5.783s3.372,3.829,3.372,5.9c0,1.312.832,3.8,2.969,1.686C36.894,26.752,39,21.5,38.305,18.51c-.674-2.911-3.08-9.392-5.924-9.392a1.92,1.92,0,0,0-.239.015" transform="translate(-27.816 -9.118)" fill="none"/>
    </clipPath>
    <linearGradient id="linear-gradient-3" x1="-0.472" y1="1.041" x2="-0.447" y2="1.041" xlink:href="#linear-gradient"/>
    <clipPath id="clip-path-11">
      <rect id="Rectangle_56" data-name="Rectangle 56" width="8.16" height="14.832" fill="none"/>
    </clipPath>
    <clipPath id="clip-path-12">
      <rect id="Rectangle_57" data-name="Rectangle 57" width="4.392" height="6.114" fill="none"/>
    </clipPath>
    <clipPath id="clip-path-13">
      <rect id="Rectangle_58" data-name="Rectangle 58" width="1.801" height="2.377" fill="none"/>
    </clipPath>
    <clipPath id="clip-path-14">
      <path id="Path_366" data-name="Path 366" d="M7.488,47.4a2.387,2.387,0,0,1-2.248.357s.089.551-1.28,1.057a11.816,11.816,0,0,0-2.709,1.607c.938.685,2.218-.283,4.063-1.161A11.015,11.015,0,0,1,11,48.311c1.816.164,3.111-.685,2.4-2.947-1.34,1.072-4.763,1.205-5.909,2.039" transform="translate(-1.251 -45.364)" fill="none"/>
    </clipPath>
    <linearGradient id="linear-gradient-4" x1="-0.003" y1="0.735" x2="0.034" y2="0.735" xlink:href="#linear-gradient"/>
    <clipPath id="clip-path-15">
      <path id="Path_367" data-name="Path 367" d="M.259,46.859c-.387,1.265-.432,2.724.521,2.605s1.28-.789,2.054-1.191,2.4-1.1,2.486-1.711c-1.131.178-4.093-2.263-4.48-3.483-.714.73-.193,2.516-.58,3.78" transform="translate(0 -43.079)" fill="none"/>
    </clipPath>
    <linearGradient id="linear-gradient-5" x1="0.187" y1="0.923" x2="0.251" y2="0.923" xlink:href="#linear-gradient"/>
    <clipPath id="clip-path-16">
      <path id="Path_368" data-name="Path 368" d="M8.875,29.664c-2.813.982-6.31.163-6.742-.336-.866.312-1.139,1.965-1.541,3.84s1.362,3.215,2.5,4.264a3.363,3.363,0,0,0,3.863.625c1.094-.648,4.577-.826,5.76-1.764s1.228-1.942.558-4.219.492-4.666-.134-7.189a6.781,6.781,0,0,1-4.264,4.778" transform="translate(-0.534 -24.886)" fill="none"/>
    </clipPath>
    <linearGradient id="linear-gradient-6" x1="0.011" y1="1.162" x2="0.049" y2="1.162" xlink:href="#linear-gradient"/>
    <clipPath id="clip-path-17">
      <path id="Path_369" data-name="Path 369" d="M6.177,13.782a28.094,28.094,0,0,1-3.036,5.8c-.58.8-1.987,2.9.648,3.281s6.809.447,8.551-1.74,1.831-2.614,1.831-4.153a3.858,3.858,0,0,0-.692-2.367,2.6,2.6,0,0,1,.044-1.185,6.9,6.9,0,0,0,.105-2.029,2.091,2.091,0,0,0-2.047-2.122c-.056,0-.113,0-.169,0-2.321,0-4.428,2.224-5.234,4.514" transform="translate(-2.244 -9.268)" fill="none"/>
    </clipPath>
    <linearGradient id="linear-gradient-7" x1="0.086" y1="1.645" x2="0.119" y2="1.645" xlink:href="#linear-gradient"/>
    <clipPath id="clip-path-19">
      <rect id="Rectangle_64" data-name="Rectangle 64" width="7.457" height="10.3" fill="none"/>
    </clipPath>
    <clipPath id="clip-path-20">
      <rect id="Rectangle_65" data-name="Rectangle 65" width="3.558" height="6.397" fill="none"/>
    </clipPath>
    <clipPath id="clip-path-21">
      <rect id="Rectangle_66" data-name="Rectangle 66" width="1.093" height="1.062" fill="none"/>
    </clipPath>
    <clipPath id="clip-path-22">
      <rect id="Rectangle_67" data-name="Rectangle 67" width="6.768" height="5.712" fill="none"/>
    </clipPath>
    <clipPath id="clip-path-23">
      <rect id="Rectangle_68" data-name="Rectangle 68" width="1.906" height="1.76" fill="none"/>
    </clipPath>
    <clipPath id="clip-path-24">
      <rect id="Rectangle_69" data-name="Rectangle 69" width="1.421" height="2.366" fill="none"/>
    </clipPath>
  </defs>
  <g id="Group_92" data-name="Group 92" clip-path="url(#clip-path)">
    <g id="Group_35" data-name="Group 35" transform="translate(15.995 18.287)">
      <g id="Group_34" data-name="Group 34" clip-path="url(#clip-path-2)">
        <rect id="Rectangle_48" data-name="Rectangle 48" width="13.749" height="13.973" transform="matrix(0.547, -0.837, 0.837, 0.547, -4.858, 6.751)" fill="url(#linear-gradient)"/>
      </g>
    </g>
    <g id="Group_43" data-name="Group 43" transform="translate(0 0)">
      <g id="Group_42" data-name="Group 42" clip-path="url(#clip-path)">
        <path id="Path_337" data-name="Path 337" d="M39.779,48.242a8.312,8.312,0,0,0-4.374-.407,2.881,2.881,0,0,1-2.82-.869c-.8-1.04.214-1.994,2.2-2.2s5,3.474,5,3.474" transform="translate(-15.26 -21.141)" fill="#a71b1c"/>
        <path id="Path_338" data-name="Path 338" d="M27.811,10.811a2.169,2.169,0,0,0-.737,1.173,1.123,1.123,0,0,0-.511-.777.981.981,0,0,0-.21-.1,1.407,1.407,0,0,0-.385-.084,1.6,1.6,0,0,0-.928.224v0a2.083,2.083,0,0,0-.205.13,2.887,2.887,0,0,0-.606.6,4.143,4.143,0,0,0-.359-1.208c.105-.126.191-.24.266-.348a2.271,2.271,0,0,0,.13-.2,1.939,1.939,0,0,0,.105-.194,1.712,1.712,0,0,0,.091-.215,3.367,3.367,0,0,0,.142-.536c.016-.072.03-.149.044-.233.035-.2.07-.424.112-.695.012-.074.023-.151.037-.231.025-.17.056-.357.091-.562,0-.019.007-.04.009-.059.009-.056.018-.114.025-.175v0c.028-.184.047-.375.059-.578.007-.077.012-.154.014-.233.012-.22.016-.448.014-.683,0-.079,0-.159,0-.24,0-.2-.009-.4-.016-.609,0-.081-.007-.161-.012-.242-.012-.243-.025-.488-.042-.73-.007-.081-.014-.165-.018-.247-.016-.21-.033-.415-.049-.618-.009-.084-.016-.168-.021-.252-.023-.256-.047-.506-.07-.746-.007-.089-.014-.175-.023-.261v0c-.018-.217-.035-.422-.051-.615-.007-.1-.014-.2-.021-.289-.018-.273-.03-.513-.03-.709a1.674,1.674,0,0,1,1-.27,5.49,5.49,0,0,1,1.12.1s.037.325.049.812c0,.079,0,.163,0,.25,0,.2,0,.413-.014.639v0c0,.087-.009.173-.016.259-.016.219-.042.443-.077.669,0,.03-.009.063-.014.093-.009.058-.018.114-.025.173V3a5.542,5.542,0,0,0-.044.655c0,.082,0,.166,0,.25,0,.226.014.457.023.694,0,.08.009.161.014.243.009.2.019.413.026.632,0,.081,0,.163,0,.247,0,.219,0,.45-.007.69,0,.082-.007.168-.012.252-.012.21-.03.429-.058.658,0,.051-.012.1-.019.158,0,.03-.009.063-.012.093-.023.2-.04.383-.044.557,0,.084-.007.166-.007.245a4.133,4.133,0,0,0,.042.615c.012.082.025.159.042.231a2.484,2.484,0,0,0,.182.534c.035.072.072.142.112.207a2.369,2.369,0,0,0,.2.266,2.245,2.245,0,0,0,.161.17,3.447,3.447,0,0,0,.534.408" transform="translate(-11.274 -0.001)" fill="#917986"/>
        <path id="Path_339" data-name="Path 339" d="M27.556,1.986a3.567,3.567,0,0,1-1.308.266,1.853,1.853,0,0,1-.814-.161c-.007-.1-.014-.2-.021-.289a2.447,2.447,0,0,0,2.138-.065c0,.079,0,.163,0,.25" transform="translate(-12.003 -0.82)" fill="#afa0a9"/>
        <path id="Path_340" data-name="Path 340" d="M27.606,3.424c0,.086-.009.173-.016.259a3.086,3.086,0,0,1-1.161.236,2.373,2.373,0,0,1-.855-.151c-.007-.089-.014-.175-.024-.261a2.514,2.514,0,0,0,2.057-.082" transform="translate(-12.067 -1.617)" fill="#afa0a9"/>
        <path id="Path_341" data-name="Path 341" d="M27.6,5.183c0,.03-.009.063-.014.093-.009.058-.018.114-.025.173v0a3.566,3.566,0,0,1-1.206.226,2.055,2.055,0,0,1-.6-.082c-.009-.084-.016-.168-.021-.252a2.784,2.784,0,0,0,1.87-.161" transform="translate(-12.151 -2.448)" fill="#afa0a9"/>
        <path id="Path_342" data-name="Path 342" d="M27.575,6.933c0,.082,0,.166,0,.25a3.048,3.048,0,0,1-1.043.191,2.4,2.4,0,0,1-.653-.086c-.007-.082-.014-.166-.018-.247a2.56,2.56,0,0,0,1.716-.107" transform="translate(-12.214 -3.274)" fill="#afa0a9"/>
        <path id="Path_343" data-name="Path 343" d="M27.665,8.965a3.517,3.517,0,0,1-1.138.2,2.187,2.187,0,0,1-.541-.063c0-.081-.007-.161-.012-.243a2.838,2.838,0,0,0,1.676-.14c0,.08.009.161.014.243" transform="translate(-12.268 -4.119)" fill="#afa0a9"/>
        <path id="Path_344" data-name="Path 344" d="M27.72,10.627a3.047,3.047,0,0,1-1.049.194,2.334,2.334,0,0,1-.642-.084c0-.08,0-.159,0-.24a2.574,2.574,0,0,0,1.688-.117c0,.081,0,.163,0,.247" transform="translate(-12.293 -4.903)" fill="#afa0a9"/>
        <path id="Path_345" data-name="Path 345" d="M27.69,12.156c0,.082-.007.168-.012.252a3.68,3.68,0,0,1-1.065.166,2.281,2.281,0,0,1-.634-.082c.007-.077.012-.154.014-.233a2.987,2.987,0,0,0,1.7-.1" transform="translate(-12.271 -5.741)" fill="#afa0a9"/>
        <path id="Path_346" data-name="Path 346" d="M27.536,13.88c0,.051-.012.105-.018.158,0,.031-.009.063-.012.093a3.088,3.088,0,0,1-.865.128,2.473,2.473,0,0,1-.84-.14c0-.018.007-.04.009-.058.009-.056.018-.115.026-.175a2.547,2.547,0,0,0,1.7-.007" transform="translate(-12.186 -6.556)" fill="#afa0a9"/>
        <path id="Path_347" data-name="Path 347" d="M27.347,15.407c0,.084-.007.166-.007.245a3.072,3.072,0,0,1-.9.138,2.439,2.439,0,0,1-.886-.159c.012-.074.023-.151.037-.231a2.543,2.543,0,0,0,1.751.007" transform="translate(-12.072 -7.274)" fill="#afa0a9"/>
        <path id="Path_348" data-name="Path 348" d="M27.285,17.275a3.6,3.6,0,0,1-1.185.207,2.17,2.17,0,0,1-.837-.147c.016-.072.03-.149.044-.233a2.813,2.813,0,0,0,1.935-.058c.012.081.026.158.042.231" transform="translate(-11.932 -8.05)" fill="#afa0a9"/>
        <path id="Path_349" data-name="Path 349" d="M27.369,18.7a3.293,3.293,0,0,1-1.42.34,2.322,2.322,0,0,1-1.129-.27,1.746,1.746,0,0,0,.091-.215,2.567,2.567,0,0,0,2.346-.063c.035.072.072.142.112.207" transform="translate(-11.723 -8.735)" fill="#afa0a9"/>
        <path id="Path_350" data-name="Path 350" d="M25.279,20.4v0a2.087,2.087,0,0,0-.205.131,1.8,1.8,0,0,0-.7-.951,2.208,2.208,0,0,0,.131-.2,2.1,2.1,0,0,1,.774,1.017" transform="translate(-11.512 -9.156)" fill="#afa0a9"/>
        <path id="Path_351" data-name="Path 351" d="M29.5,19.56a2.416,2.416,0,0,0-.713.8.957.957,0,0,0-.21-.1,2.612,2.612,0,0,1,.762-.875,2.245,2.245,0,0,0,.161.17" transform="translate(-13.498 -9.158)" fill="#afa0a9"/>
        <g id="Group_38" data-name="Group 38" transform="translate(14.38 0.001)" opacity="0.5" style="mix-blend-mode: multiply;isolation: isolate">
          <g id="Group_37" data-name="Group 37">
            <g id="Group_36" data-name="Group 36" clip-path="url(#clip-path-4)">
              <path id="Path_352" data-name="Path 352" d="M28.424,1.166c0,.2,0,.413-.014.639v0c0,.087-.009.173-.016.259-.016.219-.042.443-.077.669,0,.03-.009.063-.014.093-.009.058-.018.114-.025.173V3a5.549,5.549,0,0,0-.044.655c0,.082,0,.166,0,.25,0,.226.014.457.023.695,0,.079.01.16.014.242.009.2.018.413.026.632,0,.081,0,.163,0,.247,0,.219,0,.45-.007.69,0,.082-.007.168-.012.252-.012.21-.03.43-.058.658,0,.051-.012.1-.019.158,0,.03-.009.063-.012.093-.023.2-.04.383-.044.557,0,.084-.007.166-.007.245a4.15,4.15,0,0,0,.042.616c.012.081.026.158.042.231-1.1-1.28.571-8.539-.973-9.222a5.488,5.488,0,0,1,1.119.1s.037.325.049.812c0,.079,0,.163,0,.25" transform="translate(-27.251 -0.002)" fill="#917986"/>
            </g>
          </g>
        </g>
        <path id="Path_353" data-name="Path 353" d="M27.475.105c-.194.343-1.364.536-2.12.168.6-.492,2.12-.168,2.12-.168" transform="translate(-11.976 0)" fill="#afa0a9"/>
        <g id="Group_41" data-name="Group 41" transform="translate(13.7 0.907)" opacity="0.19">
          <g id="Group_40" data-name="Group 40">
            <g id="Group_39" data-name="Group 39" clip-path="url(#clip-path-5)">
              <path id="Path_354" data-name="Path 354" d="M26,2.189c.5,3.072.283,6.411.607,5.555s.1-3.088.1-4.085S25.779.864,26,2.189" transform="translate(-25.964 -1.719)" fill="#fff"/>
            </g>
          </g>
        </g>
      </g>
    </g>
    <g id="Group_45" data-name="Group 45" transform="translate(20.366 13.563)">
      <g id="Group_44" data-name="Group 44" clip-path="url(#clip-path-6)">
        <rect id="Rectangle_52" data-name="Rectangle 52" width="15.709" height="17.196" transform="translate(-7.602 5.794) rotate(-37.397)" fill="url(#linear-gradient-2)"/>
      </g>
    </g>
    <g id="Group_50" data-name="Group 50" transform="translate(0 0)">
      <g id="Group_49" data-name="Group 49" clip-path="url(#clip-path)">
        <g id="Group_48" data-name="Group 48" transform="translate(24.84 18.47)" opacity="0.19">
          <g id="Group_47" data-name="Group 47">
            <g id="Group_46" data-name="Group 46" clip-path="url(#clip-path-8)">
              <path id="Path_356" data-name="Path 356" d="M47.512,36.168c-1.2,3.559.357,5.269,1.131,6.46s1.578.565.982-2.531-1.042-7.114-2.113-3.929" transform="translate(-47.074 -35.002)" fill="#ffc3c8"/>
            </g>
          </g>
        </g>
        <path id="Path_357" data-name="Path 357" d="M39.292,48.884a2.693,2.693,0,0,0,.608.308c.213.078.431.146.651.207s.442.121.662.192a3.793,3.793,0,0,1,.645.251c-.444-.125-.894-.2-1.339-.331a4.362,4.362,0,0,1-.654-.237,1.84,1.84,0,0,1-.574-.39" transform="translate(-18.559 -23.089)" fill="#7a1c3c"/>
        <path id="Path_358" data-name="Path 358" d="M46,29.851a9.5,9.5,0,0,1-.2,1.794,16.124,16.124,0,0,1-.459,1.748,17.658,17.658,0,0,1-.65,1.685,10.9,10.9,0,0,1-.861,1.586,14.892,14.892,0,0,0,.778-1.622c.23-.554.441-1.114.622-1.686s.348-1.146.482-1.73A12.346,12.346,0,0,0,46,29.851" transform="translate(-20.705 -14.099)" fill="#ff6e9f"/>
      </g>
    </g>
    <g id="Group_52" data-name="Group 52" transform="translate(14.678 4.811)">
      <g id="Group_51" data-name="Group 51" clip-path="url(#clip-path-9)">
        <rect id="Rectangle_55" data-name="Rectangle 55" width="20.714" height="24.787" transform="translate(-9.625 5.222) rotate(-29.159)" fill="url(#linear-gradient-3)"/>
      </g>
    </g>
    <g id="Group_63" data-name="Group 63" transform="translate(0 0)">
      <g id="Group_62" data-name="Group 62" clip-path="url(#clip-path)">
        <path id="Path_360" data-name="Path 360" d="M32.53,12.432c-.179,2.187-1.593,2.633-2.6,4.055-.436-2.3-.282-4.067.569-5.184l0,0c.926-.8,2.143-.235,2.033,1.131" transform="translate(-14.023 -5.164)" fill="#a71b1c"/>
        <g id="Group_55" data-name="Group 55" transform="translate(16.006 5.498)" opacity="0.19">
          <g id="Group_54" data-name="Group 54">
            <g id="Group_53" data-name="Group 53" clip-path="url(#clip-path-11)">
              <path id="Path_361" data-name="Path 361" d="M33.621,11.31c.771,2.656-4.406,4.912-3.066,7.978s3.662,7.174,5.686,5.626,2.918-3.959,1.7-8.067-5.12-8.306-4.316-5.537" transform="translate(-30.333 -10.419)" fill="#ffc3c8"/>
            </g>
          </g>
        </g>
        <g id="Group_58" data-name="Group 58" transform="translate(18.74 7.441)" opacity="0.19">
          <g id="Group_57" data-name="Group 57">
            <g id="Group_56" data-name="Group 56" clip-path="url(#clip-path-12)">
              <path id="Path_362" data-name="Path 362" d="M35.786,16.22c-.942,1.332.729,3.259,2.545,3.87s2.009-1.086.849-3.2-1.593-3.215-2.322-2.634-.387,1-1.072,1.965" transform="translate(-35.515 -14.101)" fill="#ffc3c8"/>
            </g>
          </g>
        </g>
        <g id="Group_61" data-name="Group 61" transform="translate(19.921 8.261)" opacity="0.19">
          <g id="Group_60" data-name="Group 60">
            <g id="Group_59" data-name="Group 59" clip-path="url(#clip-path-13)">
              <path id="Path_363" data-name="Path 363" d="M37.931,17.281c.68,1.451,2.322.61,1.295-.923s-1.846-.253-1.295.923" transform="translate(-37.753 -15.655)" fill="#ffc3c8"/>
            </g>
          </g>
        </g>
        <path id="Path_364" data-name="Path 364" d="M31.778,37.053a7.741,7.741,0,0,1,1.159,1.589,6.478,6.478,0,0,1,.4.9,2.827,2.827,0,0,1,.185.967,3.74,3.74,0,0,0-.269-.936,7.877,7.877,0,0,0-.42-.878c-.15-.289-.323-.564-.5-.837s-.368-.538-.556-.807" transform="translate(-15.01 -17.501)" fill="#7a1c3c"/>
        <path id="Path_365" data-name="Path 365" d="M32.387,10.97a1.382,1.382,0,0,1,.809.054,1.036,1.036,0,0,1,.555.608,1.876,1.876,0,0,1,.093.816,3.048,3.048,0,0,1-.179.791,5.11,5.11,0,0,0,.09-.8,2.109,2.109,0,0,0-.112-.771,1.014,1.014,0,0,0-.484-.568,1.633,1.633,0,0,0-.771-.135" transform="translate(-15.297 -5.164)" fill="#ff6e9f"/>
      </g>
    </g>
    <g id="Group_65" data-name="Group 65" transform="translate(0.66 23.937)">
      <g id="Group_64" data-name="Group 64" clip-path="url(#clip-path-14)">
        <rect id="Rectangle_60" data-name="Rectangle 60" width="14.083" height="10.371" transform="translate(-2.09 0.902) rotate(-23.344)" fill="url(#linear-gradient-4)"/>
      </g>
    </g>
    <g id="Group_67" data-name="Group 67" transform="translate(0 22.732)">
      <g id="Group_66" data-name="Group 66" clip-path="url(#clip-path-15)">
        <rect id="Rectangle_61" data-name="Rectangle 61" width="8.213" height="7.722" transform="translate(-2.659 5.35) rotate(-65.078)" fill="url(#linear-gradient-5)"/>
      </g>
    </g>
    <g id="Group_69" data-name="Group 69" transform="translate(0.282 13.132)">
      <g id="Group_68" data-name="Group 68" clip-path="url(#clip-path-16)">
        <rect id="Rectangle_62" data-name="Rectangle 62" width="13.947" height="13.88" transform="translate(-0.471 13.818) rotate(-89.47)" fill="url(#linear-gradient-6)"/>
      </g>
    </g>
    <g id="Group_71" data-name="Group 71" transform="translate(1.184 4.89)">
      <g id="Group_70" data-name="Group 70" clip-path="url(#clip-path-17)">
        <rect id="Rectangle_63" data-name="Rectangle 63" width="15.944" height="15.092" transform="translate(-3.304 13.687) rotate(-80.809)" fill="url(#linear-gradient-7)"/>
      </g>
    </g>
    <g id="Group_91" data-name="Group 91" transform="translate(0 0)">
      <g id="Group_90" data-name="Group 90" clip-path="url(#clip-path)">
        <path id="Path_370" data-name="Path 370" d="M22.387,14.572a2.6,2.6,0,0,0-.044,1.185c-1.117-1.518-1.809-3.3-.937-3.929.48-.345.858.061,1.086.716a6.88,6.88,0,0,1-.105,2.029" transform="translate(-9.924 -5.527)" fill="#a71b1c"/>
        <g id="Group_74" data-name="Group 74" transform="translate(3.901 6.416)" opacity="0.19">
          <g id="Group_73" data-name="Group 73">
            <g id="Group_72" data-name="Group 72" clip-path="url(#clip-path-19)">
              <path id="Path_371" data-name="Path 371" d="M10.553,13.471c-1.437,3.421-5.06,7.323-1.9,8.454s6.757.566,6.132-2.709-1.429-4.733-1.548-5.924-1.816-1.876-2.679.178" transform="translate(-7.394 -12.158)" fill="#ffc3c8"/>
            </g>
          </g>
        </g>
        <g id="Group_77" data-name="Group 77" transform="translate(6.237 7.468)" opacity="0.19">
          <g id="Group_76" data-name="Group 76">
            <g id="Group_75" data-name="Group 75" clip-path="url(#clip-path-20)">
              <path id="Path_372" data-name="Path 372" d="M11.988,18.581c1.3,2.138,3.662,2.887,3.364.446s-.239-5.656-1.221-4.7-2.887,3.036-2.143,4.257" transform="translate(-11.82 -14.153)" fill="#ffc3c8"/>
            </g>
          </g>
        </g>
        <g id="Group_80" data-name="Group 80" transform="translate(7.46 9.008)" opacity="0.19">
          <g id="Group_79" data-name="Group 79">
            <g id="Group_78" data-name="Group 78" clip-path="url(#clip-path-21)">
              <path id="Path_373" data-name="Path 373" d="M14.453,17.339c-.878.627.328,1.191.655.417s-.03-.863-.655-.417" transform="translate(-14.138 -17.07)" fill="#ffc3c8"/>
            </g>
          </g>
        </g>
        <g id="Group_83" data-name="Group 83" transform="translate(1.259 19.461)" opacity="0.19">
          <g id="Group_82" data-name="Group 82">
            <g id="Group_81" data-name="Group 81" clip-path="url(#clip-path-22)">
              <path id="Path_374" data-name="Path 374" d="M2.464,38.516c-.4,1.342.778,3.115,2.309,3.653s5.049.86,4.27-.913-2.176-1.933-2.551-2.9-3.142-2.847-4.028.161" transform="translate(-2.386 -36.881)" fill="#ffc3c8"/>
            </g>
          </g>
        </g>
        <g id="Group_86" data-name="Group 86" transform="translate(1.87 20.069)" opacity="0.19">
          <g id="Group_85" data-name="Group 85">
            <g id="Group_84" data-name="Group 84" clip-path="url(#clip-path-23)">
              <path id="Path_375" data-name="Path 375" d="M3.673,39.475c.425,1.051,2.352-.8,1.607-1.25s-2.173-.149-1.607,1.25" transform="translate(-3.544 -38.033)" fill="#ffc3c8"/>
            </g>
          </g>
        </g>
        <g id="Group_89" data-name="Group 89" transform="translate(0.224 25.948)" opacity="0.19">
          <g id="Group_88" data-name="Group 88">
            <g id="Group_87" data-name="Group 87" clip-path="url(#clip-path-24)">
              <path id="Path_376" data-name="Path 376" d="M.841,49.691c-.97,1.433-.045,2.743.707,1.048s-.088-1.963-.707-1.048" transform="translate(-0.424 -49.174)" fill="#ffc3c8"/>
            </g>
          </g>
        </g>
        <path id="Path_377" data-name="Path 377" d="M5.73,33.115c.39.024.78.063,1.17.075l.585.029.585.009A15.075,15.075,0,0,0,10.4,33.09a6.855,6.855,0,0,0,2.216-.674,4.691,4.691,0,0,0,1.725-1.534,4.959,4.959,0,0,1-.731.919,4.452,4.452,0,0,1-.952.695,6.743,6.743,0,0,1-2.242.71,14.052,14.052,0,0,1-2.349.112,22.658,22.658,0,0,1-2.339-.2" transform="translate(-2.706 -14.586)" fill="#7a1c3c"/>
        <path id="Path_378" data-name="Path 378" d="M13.891,48.009a24.514,24.514,0,0,1,2.608-.671c.439-.092.876-.19,1.307-.306a6.083,6.083,0,0,0,.637-.2,1.932,1.932,0,0,0,.581-.325,2.84,2.84,0,0,1-1.193.613c-.431.135-.87.233-1.307.334-.88.184-1.758.356-2.633.557" transform="translate(-6.561 -21.966)" fill="#7a1c3c"/>
        <path id="Path_379" data-name="Path 379" d="M2.2,45.561c.414.367.8.757,1.2,1.134q.3.286.605.557a6.191,6.191,0,0,0,.653.5,5,5,0,0,1-1.339-.974A13.312,13.312,0,0,1,2.2,45.561" transform="translate(-1.038 -21.519)" fill="#ff6e9f"/>
        <path id="Path_380" data-name="Path 380" d="M20.98,12.942a1.256,1.256,0,0,1,.154-.966.736.736,0,0,1,.4-.312.5.5,0,0,1,.475.122.54.54,0,0,0-.448-.037.763.763,0,0,0-.336.291,1.439,1.439,0,0,0-.185.425,2.919,2.919,0,0,0-.065.476" transform="translate(-9.893 -5.501)" fill="#ff6e9f"/>
      </g>
    </g>
  </g>
</svg>
