<svg xmlns="http://www.w3.org/2000/svg" xmlns:xlink="http://www.w3.org/1999/xlink" width="32.33" height="27.225" viewBox="0 0 32.33 27.225">
  <defs>
    <clipPath id="clip-path">
      <path id="Path_496" data-name="Path 496" d="M26.073.123c-.922.408-1.138,1.581-1.535,2.509-.753,1.751-2.473,2.947-3.215,4.7-.389.921-.483,1.937-.786,2.889a6.979,6.979,0,0,1-4.373,4.424,6.976,6.976,0,0,1-4.372-4.424c-.3-.952-.4-1.968-.786-2.889-.742-1.755-2.463-2.95-3.215-4.7C7.394,1.7,7.179.531,6.256.123a2.132,2.132,0,0,0-2.293.7A21.789,21.789,0,0,0,2.519,2.933C1.96,3.7,1.218,4.316.7,5.109A2.541,2.541,0,0,0,.44,7.779c.21.33.534.583.712.933C1.837,10.058.011,11.443,0,12.939v.028c0,.048,0,.1.007.144.093,1.04,1.119,1.816,1.215,2.855.084.893-.541,1.812-.213,2.647a4.425,4.425,0,0,0,.627.906c.721,1,.723,2.323.976,3.529s1.029,2.528,2.26,2.572a3.865,3.865,0,0,0,.462-.021,1.416,1.416,0,0,1,1.018.153c.27.205.357.568.553.845a1.8,1.8,0,0,0,1.551.628h.033a6.507,6.507,0,0,0,.916-.08l3.383-.5a5.828,5.828,0,0,0,2.595-.816,3.047,3.047,0,0,0,.782-.853,3.054,3.054,0,0,0,.782.853,5.824,5.824,0,0,0,2.595.816l3.383.5a6.5,6.5,0,0,0,.916.08h.033a1.8,1.8,0,0,0,1.55-.628c.2-.276.284-.639.554-.845A1.417,1.417,0,0,1,27,25.6a3.87,3.87,0,0,0,.462.021c1.231-.044,2.006-1.366,2.26-2.572s.255-2.53.976-3.529a4.449,4.449,0,0,0,.626-.906c.327-.835-.3-1.754-.214-2.647.1-1.039,1.123-1.815,1.216-2.855q.007-.071.007-.143v-.032c-.013-1.495-1.837-2.879-1.151-4.224.178-.349.5-.6.712-.933a2.541,2.541,0,0,0-.262-2.67c-.516-.793-1.258-1.413-1.819-2.176A21.6,21.6,0,0,0,28.366.824,2.455,2.455,0,0,0,26.672,0a1.47,1.47,0,0,0-.6.124" transform="translate(0 0)" fill="none"/>
    </clipPath>
    <radialGradient id="radial-gradient" cx="0.5" cy="0.504" r="0.544" gradientTransform="matrix(0.845, 0, 0, -1, 0, 2)" gradientUnits="objectBoundingBox">
      <stop offset="0" stop-color="#cf1b1c"/>
      <stop offset="1" stop-color="#a71b1c"/>
    </radialGradient>
    <clipPath id="clip-path-2">
      <rect id="Rectangle_132" data-name="Rectangle 132" width="32.33" height="27.225" fill="none"/>
    </clipPath>
  </defs>
  <g id="Group_662" data-name="Group 662" transform="translate(0 0)">
    <g id="Group_243" data-name="Group 243" transform="translate(0 0)">
      <g id="Group_242" data-name="Group 242" clip-path="url(#clip-path)">
        <rect id="Rectangle_131" data-name="Rectangle 131" width="32.468" height="27.446" transform="translate(-0.069 -0.221)" fill="url(#radial-gradient)"/>
      </g>
    </g>
    <g id="Group_245" data-name="Group 245" transform="translate(0 0)">
      <g id="Group_244" data-name="Group 244" clip-path="url(#clip-path-2)">
        <path id="Path_497" data-name="Path 497" d="M26.549,83.368a1.123,1.123,0,1,1-1.123-1.123,1.123,1.123,0,0,1,1.123,1.123" transform="translate(-19.255 -65.161)" fill="#ed6e74"/>
        <path id="Path_498" data-name="Path 498" d="M44.57,99.844a1.123,1.123,0,1,1-1.123-1.123,1.123,1.123,0,0,1,1.123,1.123" transform="translate(-33.532 -78.214)" fill="#ed6e74"/>
        <path id="Path_499" data-name="Path 499" d="M26.549,105.249a1.123,1.123,0,1,1-1.123-1.123,1.123,1.123,0,0,1,1.123,1.123" transform="translate(-19.255 -82.497)" fill="#ed6e74"/>
        <path id="Path_500" data-name="Path 500" d="M78.55,105.249a1.123,1.123,0,1,1-1.123-1.123,1.123,1.123,0,0,1,1.123,1.123" transform="translate(-60.454 -82.497)" fill="#ed6e74"/>
        <path id="Path_501" data-name="Path 501" d="M97.6,111.942a1.123,1.123,0,1,1-1.123-1.123,1.123,1.123,0,0,1,1.123,1.123" transform="translate(-75.547 -87.799)" fill="#ed6e74"/>
        <path id="Path_502" data-name="Path 502" d="M114.331,107.825a1.123,1.123,0,1,1-1.123-1.123,1.123,1.123,0,0,1,1.123,1.123" transform="translate(-88.802 -84.538)" fill="#ed6e74"/>
        <path id="Path_503" data-name="Path 503" d="M39.163,71.011a1.123,1.123,0,1,1-1.123-1.123,1.123,1.123,0,0,1,1.123,1.123" transform="translate(-29.249 -55.371)" fill="#ed6e74"/>
        <path id="Path_504" data-name="Path 504" d="M61.817,83.368a1.123,1.123,0,1,1-1.123-1.123,1.123,1.123,0,0,1,1.123,1.123" transform="translate(-47.197 -65.161)" fill="#ed6e74"/>
        <path id="Path_505" data-name="Path 505" d="M83.956,86.2a1.123,1.123,0,1,1-1.123-1.123A1.123,1.123,0,0,1,83.956,86.2" transform="translate(-64.738 -67.403)" fill="#ed6e74"/>
        <path id="Path_506" data-name="Path 506" d="M99.916,71.011a1.123,1.123,0,1,1-1.123-1.123,1.124,1.124,0,0,1,1.123,1.123" transform="translate(-77.382 -55.371)" fill="#ed6e74"/>
        <path id="Path_507" data-name="Path 507" d="M135.956,65.605a1.123,1.123,0,1,1-1.123-1.123,1.123,1.123,0,0,1,1.123,1.123" transform="translate(-105.935 -51.088)" fill="#ed6e74"/>
        <path id="Path_508" data-name="Path 508" d="M105.321,91.6a1.123,1.123,0,1,1-1.123-1.123,1.123,1.123,0,0,1,1.123,1.123" transform="translate(-81.664 -71.687)" fill="#ed6e74"/>
        <path id="Path_509" data-name="Path 509" d="M130.551,81.825a1.123,1.123,0,1,1-1.123-1.123,1.123,1.123,0,0,1,1.123,1.123" transform="translate(-101.653 -63.938)" fill="#ed6e74"/>
        <path id="Path_510" data-name="Path 510" d="M125.144,97.012a1.123,1.123,0,1,1-1.123-1.123,1.123,1.123,0,0,1,1.123,1.123" transform="translate(-97.369 -75.971)" fill="#ed6e74"/>
        <path id="Path_511" data-name="Path 511" d="M125.144,17.982a1.123,1.123,0,1,1-1.123-1.123,1.123,1.123,0,0,1,1.123,1.123" transform="translate(-97.369 -13.357)" fill="#ed6e74"/>
        <path id="Path_512" data-name="Path 512" d="M135.956,34.2a1.123,1.123,0,1,1-1.123-1.123,1.123,1.123,0,0,1,1.123,1.123" transform="translate(-105.935 -26.205)" fill="#ed6e74"/>
        <path id="Path_513" data-name="Path 513" d="M114.331,31.368a1.123,1.123,0,1,1-1.123-1.123,1.123,1.123,0,0,1,1.123,1.123" transform="translate(-88.802 -23.962)" fill="#ed6e74"/>
        <path id="Path_514" data-name="Path 514" d="M125.144,48.356a1.123,1.123,0,1,1-1.123-1.123,1.123,1.123,0,0,1,1.123,1.123" transform="translate(-97.369 -37.422)" fill="#ed6e74"/>
        <path id="Path_515" data-name="Path 515" d="M119.737,71.011a1.123,1.123,0,1,1-1.123-1.123,1.123,1.123,0,0,1,1.123,1.123" transform="translate(-93.085 -55.371)" fill="#ed6e74"/>
        <path id="Path_516" data-name="Path 516" d="M108.926,53.763A1.123,1.123,0,1,1,107.8,52.64a1.123,1.123,0,0,1,1.123,1.123" transform="translate(-84.521 -41.705)" fill="#ed6e74"/>
        <path id="Path_517" data-name="Path 517" d="M59.242,110.655a1.123,1.123,0,1,1-1.123-1.123,1.123,1.123,0,0,1,1.123,1.123" transform="translate(-45.157 -86.78)" fill="#ed6e74"/>
        <path id="Path_518" data-name="Path 518" d="M21.142,55.841a1.123,1.123,0,1,1-1.123-1.123,1.123,1.123,0,0,1,1.123,1.123" transform="translate(-14.971 -43.352)" fill="#ed6e74"/>
        <path id="Path_519" data-name="Path 519" d="M26.549,34.2a1.123,1.123,0,1,1-1.123-1.123A1.123,1.123,0,0,1,26.549,34.2" transform="translate(-19.255 -26.205)" fill="#ed6e74"/>
        <path id="Path_520" data-name="Path 520" d="M39.163,50.437a1.123,1.123,0,1,1-1.123-1.123,1.123,1.123,0,0,1,1.123,1.123" transform="translate(-29.249 -39.07)" fill="#ed6e74"/>
        <path id="Path_521" data-name="Path 521" d="M26.549,15.148a1.123,1.123,0,1,1-1.123-1.123,1.123,1.123,0,0,1,1.123,1.123" transform="translate(-19.255 -11.112)" fill="#ed6e74"/>
        <path id="Path_522" data-name="Path 522" d="M10.33,25.961a1.123,1.123,0,1,1-1.123-1.123,1.123,1.123,0,0,1,1.123,1.123" transform="translate(-6.405 -19.679)" fill="#ed6e74"/>
      </g>
    </g>
  </g>
</svg>
